<?xml version="1.0" encoding="utf-8"?>
<!-- Generator: Adobe Illustrator 19.1.0, SVG Export Plug-In . SVG Version: 6.00 Build 0)  -->
<svg version="1.1" id="Layer_1" xmlns="http://www.w3.org/2000/svg" xmlns:xlink="http://www.w3.org/1999/xlink" x="0px" y="0px"
	 viewBox="0 0 50 50" style="enable-background:new 0 0 50 50;" xml:space="preserve">
<style type="text/css">
	.st0{opacity:0.75;}
	.st1{fill:#FFFFFF;}
	.st2{fill:#58595B;}
	.st3{fill:#1E6F9E;}
	.st4{fill:url(#SVGID_1_);}
	.st5{fill:url(#SVGID_2_);}
	.st6{fill:url(#SVGID_3_);}
	.st7{fill:#D1D2D3;}
	.st8{fill:url(#SVGID_4_);}
	.st9{fill:url(#SVGID_5_);}
	.st10{fill:url(#SVGID_6_);}
	.st11{fill:url(#SVGID_7_);}
	.st12{fill:url(#SVGID_8_);}
	.st13{fill:url(#SVGID_9_);}
	.st14{fill:#E6E6E6;}
	.st15{opacity:0.5;fill:#E6E6E6;}
	.st16{fill:url(#SVGID_10_);}
	.st17{fill:url(#SVGID_11_);}
	.st18{fill:url(#SVGID_12_);}
	.st19{fill:url(#SVGID_13_);}
	.st20{fill:url(#SVGID_14_);}
	.st21{fill:url(#SVGID_15_);}
	.st22{fill:url(#SVGID_16_);}
	.st23{fill:url(#SVGID_17_);}
	.st24{fill:url(#SVGID_18_);}
	.st25{fill:url(#SVGID_19_);}
	.st26{fill:url(#SVGID_20_);}
	.st27{fill:url(#SVGID_21_);}
	.st28{fill:url(#SVGID_22_);}
	.st29{fill:#8C9FAE;}
	.st30{fill:url(#SVGID_23_);}
	.st31{fill:#999999;}
	.st32{fill:none;stroke:#999999;stroke-miterlimit:10;}
	.st33{fill:#8FB6CF;}
	.st34{fill-rule:evenodd;clip-rule:evenodd;fill:#FFFFFF;}
	.st35{fill-rule:evenodd;clip-rule:evenodd;fill:#8FB6CF;}
	.st36{fill-rule:evenodd;clip-rule:evenodd;fill:#1E6F9E;}
	.st37{clip-path:url(#SVGID_25_);fill:#FFFFFF;}
	.st38{clip-path:url(#SVGID_27_);fill:#FFFFFF;}
	.st39{clip-path:url(#SVGID_29_);fill:#8FB6CF;}
	.st40{clip-path:url(#SVGID_31_);fill:#8FB6CF;}
	.st41{clip-path:url(#SVGID_33_);fill:#1E6F9E;}
	.st42{clip-path:url(#SVGID_35_);fill:#1E6F9E;}
	.st43{opacity:0.7;}
	.st44{fill:#5A585C;}
	.st45{fill:#A4A3A5;}
	.st46{fill:url(#SVGID_36_);}
	.st47{fill:url(#SVGID_37_);}
	.st48{fill:#CCCCCC;}
	.st49{fill:#666666;}
	.st50{fill:none;stroke:#666666;}
	.st51{fill:#7DB7DB;}
	.st52{fill:none;stroke:#1E6F9E;}
	.st53{fill:#333333;}
	.st54{fill:none;stroke:#AAAAAA;stroke-miterlimit:10;}
	.st55{fill:#D1D4D7;}
	.st56{fill:#9B9D9F;}
	.st57{fill-rule:evenodd;clip-rule:evenodd;fill:#487B9B;}
	.st58{fill-rule:evenodd;clip-rule:evenodd;fill:#BD3434;}
	.st59{fill-rule:evenodd;clip-rule:evenodd;fill:#1D8145;}
	.st60{fill-rule:evenodd;clip-rule:evenodd;fill:#42757F;}
	.st61{fill-rule:evenodd;clip-rule:evenodd;fill:#80632C;}
	.st62{fill:#5B5A5D;}
	.st63{fill:#5A5A5D;}
	.st64{fill:#97989B;}
	.st65{fill:#858789;}
	.st66{fill:#444444;}
	.st67{fill:#59595C;}
	.st68{fill:#B2B4B6;}
	.st69{fill:url(#SVGID_38_);stroke:#768B9C;}
	.st70{fill:url(#SVGID_39_);stroke:#768B9C;}
	.st71{fill:#898688;}
	.st72{fill:#778FA1;}
	.st73{fill:#EEEEEE;}
	.st74{fill:#8C8A8C;}
	.st75{clip-path:url(#SVGID_41_);fill:#FFFFFF;}
	.st76{clip-path:url(#SVGID_43_);fill:#FFFFFF;}
	.st77{fill:none;}
</style>
<symbol  id="RemoveIcon" viewBox="-7 -6.7 13 14.2">
	<g>
		<g class="st0">
			<path class="st1" d="M-0.5,6.3C-4.1,6.3-7,3.4-7-0.2s2.9-6.5,6.5-6.5C3.1-6.7,6-3.8,6-0.2S3.1,6.3-0.5,6.3z M3.5,1v-2.3l-7.9,0V1
				L3.5,1z"/>
		</g>
		<g>
			<path class="st2" d="M-0.5,7.5C-4.1,7.5-7,4.6-7,1s2.9-6.5,6.5-6.5C3.1-5.5,6-2.6,6,1S3.1,7.5-0.5,7.5z M3.5,2.2v-2.3l-7.9,0v2.3
				L3.5,2.2z"/>
		</g>
	</g>
</symbol>
<symbol  id="remove" viewBox="-6.5 -7.2 13 14.2">
	
		<use xlink:href="#RemoveIcon"  width="13" height="14.2" id="XMLID_22_" x="-7" y="-6.7" transform="matrix(1 0 0 1 0.5 -0.5)" style="overflow:visible;"/>
</symbol>
<rect x="-280" y="70" class="st3" width="32" height="32"/>
<linearGradient id="SVGID_1_" gradientUnits="userSpaceOnUse" x1="-264" y1="355" x2="-264" y2="377">
	<stop  offset="0" style="stop-color:#FFFFFF"/>
	<stop  offset="1" style="stop-color:#E7E7E7"/>
</linearGradient>
<rect x="-275" y="355" class="st4" width="22" height="22"/>
<linearGradient id="SVGID_2_" gradientUnits="userSpaceOnUse" x1="-264" y1="155" x2="-264" y2="177">
	<stop  offset="0" style="stop-color:#FFFFFF"/>
	<stop  offset="1" style="stop-color:#E7E7E7"/>
</linearGradient>
<rect x="-275" y="155" class="st5" width="22" height="22"/>
<g>
	<linearGradient id="SVGID_3_" gradientUnits="userSpaceOnUse" x1="-214" y1="517" x2="-214" y2="535">
		<stop  offset="0" style="stop-color:#FDFEFE"/>
		<stop  offset="1" style="stop-color:#D6D8D9"/>
	</linearGradient>
	<path class="st6" d="M-223.5,535c-1.4,0-2.5-1.1-2.5-2.5v-13c0-1.4,1.1-2.5,2.5-2.5h19c1.4,0,2.5,1.1,2.5,2.5v13
		c0,1.4-1.1,2.5-2.5,2.5H-223.5z"/>
	<path class="st7" d="M-204.5,518c1.1,0,1.5,0.4,1.5,1.5v13c0,1.1-0.4,2.5-1.5,2.5h-19c-1.1,0-2.5-1.4-2.5-2.5v-13
		c0-1.1,1.4-1.5,2.5-1.5h18.5 M-204.5,517h-19c-1.7,0-3.5,0.8-3.5,2.5v13c0,1.7,1.8,3.5,3.5,3.5h19c1.7,0,2.5-1.8,2.5-3.5v-13
		C-202,517.8-202.8,517-204.5,517L-204.5,517z"/>
</g>
<g>
	<linearGradient id="SVGID_4_" gradientUnits="userSpaceOnUse" x1="-214" y1="477" x2="-214" y2="495">
		<stop  offset="0" style="stop-color:#FDFEFE"/>
		<stop  offset="1" style="stop-color:#D6D8D9"/>
	</linearGradient>
	<path class="st8" d="M-202,492.5c0,1.4-1.1,2.5-2.5,2.5h-19c-1.4,0-2.5-1.1-2.5-2.5v-13c0-1.4,1.1-2.5,2.5-2.5h19
		c1.4,0,2.5,1.1,2.5,2.5V492.5z"/>
	<path class="st7" d="M-205,477c1.1,0,2,0.9,2,2v13c0,1.1-0.4,2-1.5,2h-19c-1.1,0-2.5-0.9-2.5-2v-13c0-1.1,1.4-2,2.5-2H-205
		 M-204.5,476h-19c-1.7,0-3.5,1.4-3.5,3v13c0,1.6,1.8,3,3.5,3h19c1.7,0,2.5-1.4,2.5-3v-13c0-1.6-1.1-3-2.8-3H-204.5z"/>
</g>
<g>
	<linearGradient id="SVGID_5_" gradientUnits="userSpaceOnUse" x1="-214" y1="437" x2="-214" y2="455">
		<stop  offset="0" style="stop-color:#FDFEFE"/>
		<stop  offset="1" style="stop-color:#D6D8D9"/>
	</linearGradient>
	<path class="st9" d="M-223.5,455c-1.4,0-2.5-1.1-2.5-2.5v-13c0-1.4,1.1-2.5,2.5-2.5h19c1.4,0,2.5,1.1,2.5,2.5v13
		c0,1.4-1.1,2.5-2.5,2.5H-223.5z"/>
	<path class="st7" d="M-204.5,438c1.1,0,1.5,0.4,1.5,1.5v13c0,1.1-0.4,2.5-1.5,2.5h-19c-1.1,0-2.5-1.4-2.5-2.5v-13
		c0-1.1,1.4-1.5,2.5-1.5h18.5 M-204.5,437h-19c-1.7,0-3.5,0.9-3.5,2.5v13c0,1.6,1.8,3.5,3.5,3.5h19c1.7,0,2.5-1.9,2.5-3.5v-13
		C-202,437.9-202.8,437-204.5,437L-204.5,437z"/>
</g>
<g>
	<linearGradient id="SVGID_6_" gradientUnits="userSpaceOnUse" x1="-214" y1="398" x2="-214" y2="416">
		<stop  offset="0" style="stop-color:#FDFEFE"/>
		<stop  offset="1" style="stop-color:#D6D8D9"/>
	</linearGradient>
	<path class="st10" d="M-202,413.5c0,1.4-1.1,2.5-2.5,2.5h-19c-1.4,0-2.5-1.1-2.5-2.5v-13c0-1.4,1.1-2.5,2.5-2.5h19
		c1.4,0,2.5,1.1,2.5,2.5V413.5z"/>
	<path class="st7" d="M-204.5,399c1.1,0,1.5,0.5,1.5,1.6v13c0,1.1-0.4,2.4-1.5,2.4h-19c-1.1,0-2.5-1.3-2.5-2.4v-13
		c0-1.1,1.4-1.6,2.5-1.6h18.5 M-204.5,398h-19c-1.7,0-3.5,1-3.5,2.6v13c0,1.6,1.8,3.4,3.5,3.4h19c1.7,0,2.5-1.7,2.5-3.4v-13
		C-202,399-202.8,398-204.5,398L-204.5,398z"/>
</g>
<g>
	<linearGradient id="SVGID_7_" gradientUnits="userSpaceOnUse" x1="-624" y1="314" x2="-624" y2="338">
		<stop  offset="0" style="stop-color:#FDFEFE"/>
		<stop  offset="1" style="stop-color:#D6D8D9"/>
	</linearGradient>
	<path class="st11" d="M-633.5,338c-1.4,0-2.5-1.1-2.5-2.5v-19c0-1.4,1.1-2.5,2.5-2.5h19c1.4,0,2.5,1.1,2.5,2.5v19
		c0,1.4-1.1,2.5-2.5,2.5H-633.5z"/>
	<path class="st7" d="M-614.5,315c1.1,0,1.5,0.4,1.5,1.5v19c0,1.1-0.4,2.5-1.5,2.5h-19c-1.1,0-2.5-1.4-2.5-2.5v-19
		c0-1.1,1.4-1.5,2.5-1.5h18.5 M-614.5,314h-19c-1.7,0-3.5,0.9-3.5,2.5v19c0,1.6,1.8,3.5,3.5,3.5h19c1.7,0,2.5-1.9,2.5-3.5v-19
		C-612,314.9-612.8,314-614.5,314L-614.5,314z"/>
</g>
<g>
	<linearGradient id="SVGID_8_" gradientUnits="userSpaceOnUse" x1="-624" y1="354" x2="-624" y2="378">
		<stop  offset="0" style="stop-color:#FDFEFE"/>
		<stop  offset="1" style="stop-color:#D6D8D9"/>
	</linearGradient>
	<path class="st12" d="M-633.5,378c-1.4,0-2.5-1.1-2.5-2.5v-19c0-1.4,1.1-2.5,2.5-2.5h19c1.4,0,2.5,1.1,2.5,2.5v19
		c0,1.4-1.1,2.5-2.5,2.5H-633.5z"/>
	<path class="st7" d="M-614.5,355c1.1,0,1.5,0.4,1.5,1.5v19c0,1.1-0.4,2.5-1.5,2.5h-19c-1.1,0-2.5-1.4-2.5-2.5v-19
		c0-1.1,1.4-1.5,2.5-1.5h18.5 M-614.5,354h-19c-1.7,0-3.5,0.9-3.5,2.5v19c0,1.6,1.8,3.5,3.5,3.5h19c1.7,0,2.5-1.9,2.5-3.5v-19
		C-612,354.9-612.8,354-614.5,354L-614.5,354z"/>
</g>
<g>
	<linearGradient id="SVGID_9_" gradientUnits="userSpaceOnUse" x1="-624" y1="394" x2="-624" y2="418">
		<stop  offset="0" style="stop-color:#FDFEFE"/>
		<stop  offset="1" style="stop-color:#D6D8D9"/>
	</linearGradient>
	<path class="st13" d="M-633.5,418c-1.4,0-2.5-1.1-2.5-2.5v-19c0-1.4,1.1-2.5,2.5-2.5h19c1.4,0,2.5,1.1,2.5,2.5v19
		c0,1.4-1.1,2.5-2.5,2.5H-633.5z"/>
	<path class="st7" d="M-614.5,395c1.1,0,1.5,0.4,1.5,1.5v19c0,1.1-0.4,2.5-1.5,2.5h-19c-1.1,0-2.5-1.4-2.5-2.5v-19
		c0-1.1,1.4-1.5,2.5-1.5h18.5 M-614.5,394h-19c-1.7,0-3.5,0.9-3.5,2.5v19c0,1.6,1.8,3.5,3.5,3.5h19c1.7,0,2.5-1.9,2.5-3.5v-19
		C-612,394.9-612.8,394-614.5,394L-614.5,394z"/>
</g>
<rect x="-225" y="155" class="st14" width="22" height="22"/>
<rect x="-175" y="155" class="st15" width="22" height="22"/>
<rect x="-125" y="155" class="st15" width="22" height="22"/>
<g>
	<linearGradient id="SVGID_10_" gradientUnits="userSpaceOnUse" x1="-624" y1="434" x2="-624" y2="458">
		<stop  offset="0" style="stop-color:#FDFEFE"/>
		<stop  offset="1" style="stop-color:#D6D8D9"/>
	</linearGradient>
	<path class="st16" d="M-633.5,458c-1.4,0-2.5-1.1-2.5-2.5v-19c0-1.4,1.1-2.5,2.5-2.5h19c1.4,0,2.5,1.1,2.5,2.5v19
		c0,1.4-1.1,2.5-2.5,2.5H-633.5z"/>
	<path class="st7" d="M-614.5,435c1.1,0,1.5,0.4,1.5,1.5v19c0,1.1-0.4,2.5-1.5,2.5h-19c-1.1,0-2.5-1.4-2.5-2.5v-19
		c0-1.1,1.4-1.5,2.5-1.5h18.5 M-614.5,434h-19c-1.7,0-3.5,0.9-3.5,2.5v19c0,1.6,1.8,3.5,3.5,3.5h19c1.7,0,2.5-1.9,2.5-3.5v-19
		C-612,434.9-612.8,434-614.5,434L-614.5,434z"/>
</g>
<g>
	<linearGradient id="SVGID_11_" gradientUnits="userSpaceOnUse" x1="-624" y1="514" x2="-624" y2="538">
		<stop  offset="0" style="stop-color:#FDFEFE"/>
		<stop  offset="1" style="stop-color:#D6D8D9"/>
	</linearGradient>
	<path class="st17" d="M-633.5,538c-1.4,0-2.5-1.1-2.5-2.5v-19c0-1.4,1.1-2.5,2.5-2.5h19c1.4,0,2.5,1.1,2.5,2.5v19
		c0,1.4-1.1,2.5-2.5,2.5H-633.5z"/>
	<path class="st7" d="M-614.5,515c1.1,0,1.5,0.4,1.5,1.5v19c0,1.1-0.4,2.5-1.5,2.5h-19c-1.1,0-2.5-1.4-2.5-2.5v-19
		c0-1.1,1.4-1.5,2.5-1.5h18.5 M-614.5,514h-19c-1.7,0-3.5,0.8-3.5,2.5v19c0,1.7,1.8,3.5,3.5,3.5h19c1.7,0,2.5-1.8,2.5-3.5v-19
		C-612,514.8-612.8,514-614.5,514L-614.5,514z"/>
</g>
<g>
	<linearGradient id="SVGID_12_" gradientUnits="userSpaceOnUse" x1="-574.5" y1="539" x2="-574.5" y2="514">
		<stop  offset="0" style="stop-color:#FDFEFE"/>
		<stop  offset="1" style="stop-color:#D6D8D9"/>
	</linearGradient>
	<path class="st18" d="M-562,536c0,1.7-1.3,3-3,3h-19c-1.7,0-3-1.3-3-3v-19c0-1.7,1.3-3,3-3h19c1.7,0,3,1.3,3,3V536z"/>
	<linearGradient id="SVGID_13_" gradientUnits="userSpaceOnUse" x1="-574.5" y1="539" x2="-574.5" y2="514">
		<stop  offset="0" style="stop-color:#DEDFE0"/>
		<stop  offset="1" style="stop-color:#818385"/>
	</linearGradient>
	<path class="st19" d="M-564.5,515c1.1,0,1.5,0.4,1.5,1.5v19c0,1.1-0.4,2.5-1.5,2.5h-19c-1.1,0-2.5-1.4-2.5-2.5v-19
		c0-1.1,1.4-1.5,2.5-1.5h18.5 M-564.5,514h-19c-1.7,0-3.5,0.8-3.5,2.5v19c0,1.7,1.8,3.5,3.5,3.5h19c1.7,0,2.5-1.8,2.5-3.5v-19
		C-562,514.8-562.8,514-564.5,514L-564.5,514z"/>
</g>
<g>
	<linearGradient id="SVGID_14_" gradientUnits="userSpaceOnUse" x1="-574.5" y1="459" x2="-574.5" y2="434">
		<stop  offset="0" style="stop-color:#FDFEFE"/>
		<stop  offset="1" style="stop-color:#D6D8D9"/>
	</linearGradient>
	<path class="st20" d="M-562,456c0,1.7-1.3,3-3,3h-19c-1.7,0-3-1.3-3-3v-19c0-1.7,1.3-3,3-3h19c1.7,0,3,1.3,3,3V456z"/>
	<linearGradient id="SVGID_15_" gradientUnits="userSpaceOnUse" x1="-574.5" y1="459" x2="-574.5" y2="434">
		<stop  offset="0" style="stop-color:#DEDFE0"/>
		<stop  offset="1" style="stop-color:#818385"/>
	</linearGradient>
	<path class="st21" d="M-564.5,435c1.1,0,1.5,0.4,1.5,1.5v19c0,1.1-0.4,2.5-1.5,2.5h-19c-1.1,0-2.5-1.4-2.5-2.5v-19
		c0-1.1,1.4-1.5,2.5-1.5h18.5 M-564.5,434h-19c-1.7,0-3.5,0.9-3.5,2.5v19c0,1.6,1.8,3.5,3.5,3.5h19c1.7,0,2.5-1.9,2.5-3.5v-19
		C-562,434.9-562.8,434-564.5,434L-564.5,434z"/>
</g>
<g>
	<linearGradient id="SVGID_16_" gradientUnits="userSpaceOnUse" x1="-574.5" y1="419" x2="-574.5" y2="394">
		<stop  offset="0" style="stop-color:#FDFEFE"/>
		<stop  offset="1" style="stop-color:#D6D8D9"/>
	</linearGradient>
	<path class="st22" d="M-562,416c0,1.7-1.3,3-3,3h-19c-1.7,0-3-1.3-3-3v-19c0-1.7,1.3-3,3-3h19c1.7,0,3,1.3,3,3V416z"/>
	<linearGradient id="SVGID_17_" gradientUnits="userSpaceOnUse" x1="-574.5" y1="419" x2="-574.5" y2="394">
		<stop  offset="0" style="stop-color:#DEDFE0"/>
		<stop  offset="1" style="stop-color:#818385"/>
	</linearGradient>
	<path class="st23" d="M-564.5,395c1.1,0,1.5,0.4,1.5,1.5v19c0,1.1-0.4,2.5-1.5,2.5h-19c-1.1,0-2.5-1.4-2.5-2.5v-19
		c0-1.1,1.4-1.5,2.5-1.5h18.5 M-564.5,394h-19c-1.7,0-3.5,0.9-3.5,2.5v19c0,1.6,1.8,3.5,3.5,3.5h19c1.7,0,2.5-1.9,2.5-3.5v-19
		C-562,394.9-562.8,394-564.5,394L-564.5,394z"/>
</g>
<g>
	<linearGradient id="SVGID_18_" gradientUnits="userSpaceOnUse" x1="-574.5" y1="379" x2="-574.5" y2="354">
		<stop  offset="0" style="stop-color:#FDFEFE"/>
		<stop  offset="1" style="stop-color:#D6D8D9"/>
	</linearGradient>
	<path class="st24" d="M-562,376c0,1.7-1.3,3-3,3h-19c-1.7,0-3-1.3-3-3v-19c0-1.7,1.3-3,3-3h19c1.7,0,3,1.3,3,3V376z"/>
	<linearGradient id="SVGID_19_" gradientUnits="userSpaceOnUse" x1="-574.5" y1="379" x2="-574.5" y2="354">
		<stop  offset="0" style="stop-color:#DEDFE0"/>
		<stop  offset="1" style="stop-color:#818385"/>
	</linearGradient>
	<path class="st25" d="M-564.5,355c1.1,0,1.5,0.4,1.5,1.5v19c0,1.1-0.4,2.5-1.5,2.5h-19c-1.1,0-2.5-1.4-2.5-2.5v-19
		c0-1.1,1.4-1.5,2.5-1.5h18.5 M-564.5,354h-19c-1.7,0-3.5,0.9-3.5,2.5v19c0,1.6,1.8,3.5,3.5,3.5h19c1.7,0,2.5-1.9,2.5-3.5v-19
		C-562,354.9-562.8,354-564.5,354L-564.5,354z"/>
</g>
<g>
	<linearGradient id="SVGID_20_" gradientUnits="userSpaceOnUse" x1="-574.5" y1="339" x2="-574.5" y2="314">
		<stop  offset="0" style="stop-color:#FDFEFE"/>
		<stop  offset="1" style="stop-color:#D6D8D9"/>
	</linearGradient>
	<path class="st26" d="M-562,336c0,1.7-1.3,3-3,3h-19c-1.7,0-3-1.3-3-3v-19c0-1.7,1.3-3,3-3h19c1.7,0,3,1.3,3,3V336z"/>
	<linearGradient id="SVGID_21_" gradientUnits="userSpaceOnUse" x1="-574.5" y1="339" x2="-574.5" y2="314">
		<stop  offset="0" style="stop-color:#DEDFE0"/>
		<stop  offset="1" style="stop-color:#818385"/>
	</linearGradient>
	<path class="st27" d="M-564.5,315c1.1,0,1.5,0.4,1.5,1.5v19c0,1.1-0.4,2.5-1.5,2.5h-19c-1.1,0-2.5-1.4-2.5-2.5v-19
		c0-1.1,1.4-1.5,2.5-1.5h18.5 M-564.5,314h-19c-1.7,0-3.5,0.9-3.5,2.5v19c0,1.6,1.8,3.5,3.5,3.5h19c1.7,0,2.5-1.9,2.5-3.5v-19
		C-562,314.9-562.8,314-564.5,314L-564.5,314z"/>
</g>
<g>
	<linearGradient id="SVGID_22_" gradientUnits="userSpaceOnUse" x1="-624" y1="554" x2="-624" y2="578">
		<stop  offset="0" style="stop-color:#DCEEFE"/>
		<stop  offset="1" style="stop-color:#A5B9CB"/>
	</linearGradient>
	<path class="st28" d="M-633.5,578c-1.4,0-2.5-1.1-2.5-2.5v-19c0-1.4,1.1-2.5,2.5-2.5h19c1.4,0,2.5,1.1,2.5,2.5v19
		c0,1.4-1.1,2.5-2.5,2.5H-633.5z"/>
	<path class="st29" d="M-614.5,555c1.1,0,1.5,0.4,1.5,1.5v19c0,1.1-0.4,2.5-1.5,2.5h-19c-1.1,0-2.5-1.4-2.5-2.5v-19
		c0-1.1,1.4-1.5,2.5-1.5h18.5 M-614.5,554h-19c-1.7,0-3.5,0.8-3.5,2.5v19c0,1.7,1.8,3.5,3.5,3.5h19c1.7,0,2.5-1.8,2.5-3.5v-19
		C-612,554.8-612.8,554-614.5,554L-614.5,554z"/>
</g>
<g>
	<linearGradient id="SVGID_23_" gradientUnits="userSpaceOnUse" x1="-624" y1="594" x2="-624" y2="618">
		<stop  offset="0" style="stop-color:#DCEEFE"/>
		<stop  offset="1" style="stop-color:#A5B9CB"/>
	</linearGradient>
	<path class="st30" d="M-633.5,618c-1.4,0-2.5-1.1-2.5-2.5v-19c0-1.4,1.1-2.5,2.5-2.5h19c1.4,0,2.5,1.1,2.5,2.5v19
		c0,1.4-1.1,2.5-2.5,2.5H-633.5z"/>
	<path class="st29" d="M-614.5,595c1.1,0,1.5,0.4,1.5,1.5v19c0,1.1-0.4,2.5-1.5,2.5h-19c-1.1,0-2.5-1.4-2.5-2.5v-19
		c0-1.1,1.4-1.5,2.5-1.5h18.5 M-614.5,594h-19c-1.7,0-3.5,0.8-3.5,2.5v19c0,1.7,1.8,3.5,3.5,3.5h19c1.7,0,2.5-1.8,2.5-3.5v-19
		C-612,594.8-612.8,594-614.5,594L-614.5,594z"/>
</g>
<rect x="-690" y="70" class="st3" width="32" height="32"/>
<rect x="-690" y="110" class="st3" width="32" height="32"/>
<rect x="-690" y="150" class="st3" width="32" height="32"/>
<rect x="-590" y="110" class="st3" width="32" height="32"/>
<rect x="-830" y="20" class="st77" width="205.7" height="15.2"/>
<text transform="matrix(1 0 0 1 -830 28.5918)" style="font-family:'Arial-BoldMT'; font-size:12px;">Icon Visuals for Confluence</text>
<text transform="matrix(1 0 0 1 -690 57.7214)" class="st31" style="font-family:'Arial-BoldMT'; font-size:9px;">DEFAULT</text>
<text transform="matrix(1 0 0 1 -830 57.7214)" class="st31" style="font-family:'Arial-BoldMT'; font-size:9px;">NAME</text>
<text transform="matrix(1 0 0 1 -639.9999 57.7214)" class="st31" style="font-family:'Arial-BoldMT'; font-size:9px;">HOVER</text>
<text transform="matrix(1 0 0 1 -589.9999 57.7214)" class="st31" style="font-family:'Arial-BoldMT'; font-size:9px;">DISABLED</text>
<text transform="matrix(1 0 0 1 -540.0002 57.7214)" class="st31" style="font-family:'Arial-BoldMT'; font-size:9px;">READ-ONLY</text>
<text transform="matrix(1 0 0 1 -280 57.7214)" class="st31" style="font-family:'Arial-BoldMT'; font-size:9px;">DEFAULT</text>
<text transform="matrix(1 0 0 1 -229.9999 57.7214)" class="st31" style="font-family:'Arial-BoldMT'; font-size:9px;">HOVER</text>
<text transform="matrix(1 0 0 1 -179.9999 57.7214)" class="st31" style="font-family:'Arial-BoldMT'; font-size:9px;">DISABLED</text>
<text transform="matrix(1 0 0 1 -130.0002 57.7214)" class="st31" style="font-family:'Arial-BoldMT'; font-size:9px;">READ-ONLY</text>
<text transform="matrix(1 0 0 1 -420 57.7214)" class="st31" style="font-family:'Arial-BoldMT'; font-size:9px;">NAME</text>
<line class="st32" x1="-430.5" y1="45" x2="-430.5" y2="965"/>
<text transform="matrix(1 0 0 1 -830 88.5814)" style="font-family:'ArialMT'; font-size:10px;">Close Form</text>
<text transform="matrix(1 0 0 1 -420 128.5813)" style="font-family:'ArialMT'; font-size:10px;">Field - Edit</text>
<text transform="matrix(1 0 0 1 -420 88.5812)" style="font-family:'ArialMT'; font-size:10px;">Close Modal/Pop-up</text>
<text transform="matrix(1 0 0 1 -420 168.5812)" style="font-family:'ArialMT'; font-size:10px;">Field - LOV</text>
<text transform="matrix(1 0 0 1 -420 208.5815)" style="font-family:'ArialMT'; font-size:10px;">Field - Dropdown</text>
<text transform="matrix(1 0 0 1 -420 248.5809)" style="font-family:'ArialMT'; font-size:10px;">Field - Calendar Picker</text>
<text transform="matrix(1 0 0 1 -420 288.5815)" style="font-family:'ArialMT'; font-size:10px;">Checkbox - Checked</text>
<text transform="matrix(1 0 0 1 -420 328.5818)" style="font-family:'ArialMT'; font-size:10px;">Checkbox - Empty</text>
<text transform="matrix(1 0 0 1 -420 570.5815)" style="font-family:'ArialMT'; font-size:10px;">Radio Button - On</text>
<text transform="matrix(1 0 0 1 -420 608.5808)" style="font-family:'ArialMT'; font-size:10px;">Radio Button - Off</text>
<text transform="matrix(1 0 0 1 -420 648.5807)" style="font-family:'ArialMT'; font-size:10px;">Toggle - List View Selected</text>
<text transform="matrix(1 0 0 1 -420 688.5812)" style="font-family:'ArialMT'; font-size:10px;">Toggle - List View Deselected</text>
<text transform="matrix(1 0 0 1 -420 728.5808)" style="font-family:'ArialMT'; font-size:10px;">Toggle - Grid View Selected</text>
<text transform="matrix(1 0 0 1 -420 768.5814)" style="font-family:'ArialMT'; font-size:10px;">Toggle - Grid View Deselected</text>
<text transform="matrix(1 0 0 1 -420 368.5813)" style="font-family:'ArialMT'; font-size:10px;">Keyblock - Generate ID</text>
<text transform="matrix(1 0 0 1 -420 802.5817)"><tspan x="0" y="0" style="font-family:'ArialMT'; font-size:10px;">Section Header -  </tspan><tspan x="0" y="12" style="font-family:'ArialMT'; font-size:10px;">Expand/Collapse </tspan></text>
<text transform="matrix(1 0 0 1 -420 408.5815)" style="font-family:'ArialMT'; font-size:10px;">Pagination - Back to 1st Page</text>
<text transform="matrix(1 0 0 1 -420 448.5809)" style="font-family:'ArialMT'; font-size:10px;">Pagination - Previous Page</text>
<text transform="matrix(1 0 0 1 -420 488.5812)" style="font-family:'ArialMT'; font-size:10px;">Pagination - Next Page</text>
<text transform="matrix(1 0 0 1 -420 523.5812)"><tspan x="0" y="0" style="font-family:'ArialMT'; font-size:10px;">Pagination - Forward  </tspan><tspan x="0" y="12" style="font-family:'ArialMT'; font-size:10px;">to Last Page</tspan></text>
<text transform="matrix(1 0 0 1 -830 128.5814)" style="font-family:'ArialMT'; font-size:10px;">Change MEP</text>
<text transform="matrix(1 0 0 1 -830 168.5814)" style="font-family:'ArialMT'; font-size:10px;">BDM - Add</text>
<text transform="matrix(1 0 0 1 -830 208.5809)" style="font-family:'ArialMT'; font-size:10px;">BDM - Retrieve</text>
<text transform="matrix(1 0 0 1 -830 248.5814)" style="font-family:'ArialMT'; font-size:10px;">Related</text>
<text transform="matrix(1 0 0 1 -830 288.5814)" style="font-family:'ArialMT'; font-size:10px;">Tools</text>
<text transform="matrix(1 0 0 1 -830 328.5814)" style="font-family:'ArialMT'; font-size:10px;">Insert</text>
<text transform="matrix(1 0 0 1 -830 368.5814)" style="font-family:'ArialMT'; font-size:10px;">Delete</text>
<text transform="matrix(1 0 0 1 -830 408.5814)" style="font-family:'ArialMT'; font-size:10px;">Copy</text>
<text transform="matrix(1 0 0 1 -830 448.5814)" style="font-family:'ArialMT'; font-size:10px;">More Information</text>
<text transform="matrix(1 0 0 1 -830 483.5814)"><tspan x="0" y="0" style="font-family:'ArialMT'; font-size:10px;">More Information with </tspan><tspan x="0" y="12" style="font-family:'ArialMT'; font-size:10px;">Existing Info</tspan></text>
<text transform="matrix(1 0 0 1 -830 530.5814)" style="font-family:'ArialMT'; font-size:10px;">Filter</text>
<text transform="matrix(1 0 0 1 -420 848.5812)" style="font-family:'ArialMT'; font-size:10px;">Ellucian Logo</text>
<text transform="matrix(1 0 0 1 -830 648.5816)" style="font-family:'ArialMT'; font-size:10px;">Previous Section</text>
<text transform="matrix(1 0 0 1 -830 608.5809)" style="font-family:'ArialMT'; font-size:10px;">Filter Window - Remove</text>
<text transform="matrix(1 0 0 1 -830 568.5813)" style="font-family:'ArialMT'; font-size:10px;">Filter Window - Close</text>
<text transform="matrix(1 0 0 1 -830 688.5812)" style="font-family:'ArialMT'; font-size:10px;">Next Section</text>
<text transform="matrix(1 0 0 1 -830 728.5812)" style="font-family:'ArialMT'; font-size:10px;">Caret Arrows</text>
<text transform="matrix(1 0 0 1 -830 768.5812)" style="font-family:'ArialMT'; font-size:10px;">Search</text>
<text transform="matrix(1 0 0 1 -830 808.5812)" style="font-family:'ArialMT'; font-size:10px;">Notification - Success</text>
<text transform="matrix(1 0 0 1 -830 848.5812)" style="font-family:'ArialMT'; font-size:10px;">Notification - Error</text>
<text transform="matrix(1 0 0 1 -830 888.5812)" style="font-family:'ArialMT'; font-size:10px;">Notification - Hint</text>
<text transform="matrix(1 0 0 1 -830 928.5812)" style="font-family:'ArialMT'; font-size:10px;">Notification - Warning</text>
<g id="college_icon_4_" transform="translate(288 32)">
	<path class="st1" d="M-953,102v-1h-1v-7h1v-1h-4v1h1v7h-3v-7h1v-1h-3v1h1v7h-4v-7h1v-1h-3v1h1v7h-3v-7h1v-1h-4v1h1v7h-1v1h-1v2h20
		v-2H-953z"/>
	<path class="st1" d="M-962.6,85h1.2l9.4,5.4V92h-20v-1.6L-962.6,85z"/>
</g>
<g id="college_icon_1_" transform="translate(288 32)">
	<path class="st3" d="M-903,102v-1h-1v-7h1v-1h-4v1h1v7h-3v-7h1v-1h-3v1h1v7h-4v-7h1v-1h-3v1h1v7h-3v-7h1v-1h-4v1h1v7h-1v1h-1v2h20
		v-2H-903z"/>
	<path class="st3" d="M-912.6,85h1.2l9.4,5.4V92h-20v-1.6L-912.6,85z"/>
</g>
<g id="college_icon_2_" transform="translate(288 32)">
	<path class="st33" d="M-853,102v-1h-1v-7h1v-1h-4v1h1v7h-3v-7h1v-1h-3v1h1v7h-4v-7h1v-1h-3v1h1v7h-3v-7h1v-1h-4v1h1v7h-1v1h-1v2h20
		v-2H-853z"/>
	<path class="st33" d="M-862.6,85h1.2l9.4,5.4V92h-20v-1.6L-862.6,85z"/>
</g>
<path class="st34" d="M-671.5,158h-9.5v16h13v-12L-671.5,158z M-668,170h-4v3h-2v-3h-3v-2h3v-3h2v3h4V170z M-669.5,162h-3l0-3
	L-669.5,162z"/>
<rect x="-690" y="190" class="st3" width="32" height="32"/>
<rect x="-690" y="230" class="st3" width="32" height="32"/>
<rect x="-690" y="270" class="st3" width="32" height="32"/>
<rect x="-590" y="150" class="st3" width="32" height="32"/>
<path class="st35" d="M-571.5,158h-9.5v16h13v-12L-571.5,158z M-568,170h-4v3h-2v-3h-3v-2h3v-3h2v3h4V170z M-569.5,162h-3l0-3
	L-569.5,162z"/>
<path class="st36" d="M-621.5,158h-9.5v16h13v-12L-621.5,158z M-618,170h-4v3h-2v-3h-3v-2h3v-3h2v3h4V170z M-619.5,162h-3l0-3
	L-619.5,162z"/>
<g>
	<g>
		<defs>
			<path id="SVGID_24_" d="M-674.7,206h5.7v-4.2l-2.9-3.8h-8.1v9h3.3L-674.7,206z M-673,199.3l3.1,2.7h-3.1V199.3z M-679,200h4v1h-4
				V200z M-679,202h5v1h-5V202z M-679,204h7v1h-7V204z"/>
		</defs>
		<clipPath id="SVGID_25_">
			<use xlink:href="#SVGID_24_"  style="overflow:visible;"/>
		</clipPath>
		<rect x="-685" y="193" class="st37" width="21" height="19"/>
	</g>
	<g>
		<defs>
			<polyline id="SVGID_26_" points="-669,207 -674.7,207 -676.7,208 -681,208 -681,214 -668,214 -668,207 -669,207 			"/>
		</defs>
		<clipPath id="SVGID_27_">
			<use xlink:href="#SVGID_26_"  style="overflow:visible;"/>
		</clipPath>
		<rect x="-686" y="202" class="st38" width="23" height="17"/>
	</g>
</g>
<rect x="-590" y="190" class="st3" width="32" height="32"/>
<g>
	<g>
		<defs>
			<path id="SVGID_28_" d="M-574.7,206h5.7v-4.2l-2.9-3.8h-8.1v9h3.3L-574.7,206z M-573,199.3l3.1,2.7h-3.1V199.3z M-579,200h4v1h-4
				V200z M-579,202h5v1h-5V202z M-579,204h7v1h-7V204z"/>
		</defs>
		<use xlink:href="#SVGID_28_"  style="overflow:visible;fill-rule:evenodd;clip-rule:evenodd;fill:#8FB6CF;"/>
		<clipPath id="SVGID_29_">
			<use xlink:href="#SVGID_28_"  style="overflow:visible;"/>
		</clipPath>
		<rect x="-585" y="193" class="st39" width="21" height="19"/>
	</g>
	<g>
		<defs>
			<polyline id="SVGID_30_" points="-568,207 -574.7,207 -576.7,208 -581,208 -581,214 -568,214 -568,207 -568,207 			"/>
		</defs>
		<use xlink:href="#SVGID_30_"  style="overflow:visible;fill-rule:evenodd;clip-rule:evenodd;fill:#8FB6CF;"/>
		<clipPath id="SVGID_31_">
			<use xlink:href="#SVGID_30_"  style="overflow:visible;"/>
		</clipPath>
		<rect x="-586" y="202" class="st40" width="23" height="17"/>
	</g>
</g>
<g>
	<g>
		<defs>
			<path id="SVGID_32_" d="M-624.7,206h5.7v-4.2l-2.9-3.8h-8.1v9h3.3L-624.7,206z M-623,199.3l3.1,2.7h-3.1V199.3z M-629,200h4v1h-4
				V200z M-629,202h5v1h-5V202z M-629,204h7v1h-7V204z"/>
		</defs>
		<use xlink:href="#SVGID_32_"  style="overflow:visible;fill-rule:evenodd;clip-rule:evenodd;fill:#1E6F9E;"/>
		<clipPath id="SVGID_33_">
			<use xlink:href="#SVGID_32_"  style="overflow:visible;"/>
		</clipPath>
		<rect x="-635" y="193" class="st41" width="21" height="19"/>
	</g>
	<g>
		<defs>
			<polyline id="SVGID_34_" points="-618,207 -624.7,207 -626.7,208 -631,208 -631,214 -618,214 -618,207 -618,207 			"/>
		</defs>
		<use xlink:href="#SVGID_34_"  style="overflow:visible;fill-rule:evenodd;clip-rule:evenodd;fill:#1E6F9E;"/>
		<clipPath id="SVGID_35_">
			<use xlink:href="#SVGID_34_"  style="overflow:visible;"/>
		</clipPath>
		<rect x="-636" y="202" class="st42" width="23" height="17"/>
	</g>
</g>
<path class="st1" d="M-669,248v-2v-1h-4v-1h3v-1v-5h-6h-1v6h3v1h-5v1v2h-2h-1v6h7v-1v-5h-3v-2h8v2h-2h-1v6h7v-1v-5H-669z M-676,249
	v1h-5v-1H-676z M-676,240v-1h5v1H-676z M-667,250h-5v-1h5V250z"/>
<rect x="-590" y="230" class="st3" width="32" height="32"/>
<path class="st33" d="M-569,248v-2v-1h-4v-1h3v-1v-5h-6h-1v6h3v1h-5v1v2h-2h-1v6h7v-1v-5h-3v-2h8v2h-2h-1v6h7v-1v-5H-569z M-576,249
	v1h-5v-1H-576z M-576,240v-1h5v1H-576z M-567,250h-5v-1h5V250z"/>
<path class="st3" d="M-619,248v-2v-1h-4v-1h3v-1v-5h-6h-1v6h3v1h-5v1v2h-2h-1v6h7v-1v-5h-3v-2h8v2h-2h-1v6h7v-1v-5H-619z M-626,249
	v1h-5v-1H-626z M-626,240v-1h5v1H-626z M-617,250h-5v-1h5V250z"/>
<rect x="-590" y="270" class="st3" width="32" height="32"/>
<g>
	<g class="st43">
		<path class="st1" d="M-669.3,320h-9.3c-1.3,0-2.3,1.1-2.3,2.3v9.3c0,1.3,1.1,2.3,2.3,2.3h9.3c1.3,0,2.3-1.1,2.3-2.3v-9.3
			C-667,321.1-668,320-669.3,320z M-668.6,328.2h-4.2v2.9h0v1.2l-2.3,0v-4.2l-4.2,0v-2.3h1.3v0h2.9v-4.2h2.3v1.2h0v2.9h2.9v0h1.3
			V328.2z"/>
	</g>
	<g>
		<path class="st44" d="M-669.3,319h-9.3c-1.3,0-2.3,1.1-2.3,2.3v9.3c0,1.3,1.1,2.3,2.3,2.3h9.3c1.3,0,2.3-1.1,2.3-2.3v-9.3
			C-667,320.1-668,319-669.3,319z M-668.6,327.2h-4.2v2.9h0v1.2l-2.3,0v-4.2l-4.2,0v-2.3h1.3v0h2.9v-4.2h2.3v1.2h0v2.9h2.9v0h1.3
			V327.2z"/>
	</g>
</g>
<g>
	<g class="st43">
		<path class="st1" d="M-519.3,320h-9.3c-1.3,0-2.3,1.1-2.3,2.3v9.3c0,1.3,1.1,2.3,2.3,2.3h9.3c1.3,0,2.3-1.1,2.3-2.3v-9.3
			C-517,321.1-518,320-519.3,320z M-518.6,328.2h-4.2v2.9h0v1.2l-2.3,0v-4.2l-4.2,0v-2.3h1.3v0h2.9v-4.2h2.3v1.2h0v2.9h2.9v0h1.3
			V328.2z"/>
	</g>
	<g>
		<path class="st45" d="M-519.3,319h-9.3c-1.3,0-2.3,1.1-2.3,2.3v9.3c0,1.3,1.1,2.3,2.3,2.3h9.3c1.3,0,2.3-1.1,2.3-2.3v-9.3
			C-517,320.1-518,319-519.3,319z M-518.6,327.2h-4.2v2.9h0v1.2l-2.3,0v-4.2l-4.2,0v-2.3h1.3v0h2.9v-4.2h2.3v1.2h0v2.9h2.9v0h1.3
			V327.2z"/>
	</g>
</g>
<g>
	<g class="st43">
		<path class="st1" d="M-619.3,320h-9.3c-1.3,0-2.3,1.1-2.3,2.3v9.3c0,1.3,1.1,2.3,2.3,2.3h9.3c1.3,0,2.3-1.1,2.3-2.3v-9.3
			C-617,321.1-618,320-619.3,320z M-618.6,328.2h-4.2v2.9h0v1.2l-2.3,0v-4.2l-4.2,0v-2.3h1.3v0h2.9v-4.2h2.3v1.2h0v2.9h2.9v0h1.3
			V328.2z"/>
	</g>
	<g>
		<path class="st3" d="M-619.3,319h-9.3c-1.3,0-2.3,1.1-2.3,2.3v9.3c0,1.3,1.1,2.3,2.3,2.3h9.3c1.3,0,2.3-1.1,2.3-2.3v-9.3
			C-617,320.1-618,319-619.3,319z M-618.6,327.2h-4.2v2.9h0v1.2l-2.3,0v-4.2l-4.2,0v-2.3h1.3v0h2.9v-4.2h2.3v1.2h0v2.9h2.9v0h1.3
			V327.2z"/>
	</g>
</g>
<g>
	<g class="st43">
		<path class="st1" d="M-569.3,320h-9.3c-1.3,0-2.3,1.1-2.3,2.3v9.3c0,1.3,1.1,2.3,2.3,2.3h9.3c1.3,0,2.3-1.1,2.3-2.3v-9.3
			C-567,321.1-568,320-569.3,320z M-568.6,328.2h-4.2v2.9h0v1.2l-2.3,0v-4.2l-4.2,0v-2.3h1.3v0h2.9v-4.2h2.3v1.2h0v2.9h2.9v0h1.3
			V328.2z"/>
	</g>
	<g>
		<path class="st3" d="M-569.3,319h-9.3c-1.3,0-2.3,1.1-2.3,2.3v9.3c0,1.3,1.1,2.3,2.3,2.3h9.3c1.3,0,2.3-1.1,2.3-2.3v-9.3
			C-567,320.1-568,319-569.3,319z M-568.6,327.2h-4.2v2.9h0v1.2l-2.3,0v-4.2l-4.2,0v-2.3h1.3v0h2.9v-4.2h2.3v1.2h0v2.9h2.9v0h1.3
			V327.2z"/>
	</g>
</g>
<g>
	<g class="st43">
		<path class="st1" d="M-669.3,360h-9.3c-1.3,0-2.3,1-2.3,2.3v9.3c0,1.3,1.1,2.4,2.3,2.4h9.3c1.3,0,2.3-1.1,2.3-2.4v-9.3
			C-667,361-668,360-669.3,360z M-675.1,368h-2.9v-2h2.9h2.3h2.8v2h-2.8H-675.1z"/>
	</g>
	<g>
		<g>
			<path class="st44" d="M-669.3,359h-9.3c-1.3,0-2.3,1-2.3,2.3v9.3c0,1.3,1.1,2.4,2.3,2.4h9.3c1.3,0,2.3-1.1,2.3-2.4v-9.3
				C-667,360-668,359-669.3,359z M-675.1,367h-2.9v-2h2.9h2.3h2.8v2h-2.8H-675.1z"/>
		</g>
	</g>
</g>
<g>
	<g class="st43">
		<path class="st1" d="M-519.3,360h-9.3c-1.3,0-2.3,1-2.3,2.3v9.4c0,1.3,1.1,2.3,2.3,2.3h9.3c1.3,0,2.3-1,2.3-2.3v-9.4
			C-517,361-518.1,360-519.3,360z M-525.1,368h-2.9v-2h2.9h2.3h2.8v2h-2.8H-525.1z"/>
	</g>
	<g>
		<g>
			<path class="st45" d="M-519.3,359h-9.3c-1.3,0-2.3,1-2.3,2.3v9.4c0,1.3,1.1,2.3,2.3,2.3h9.3c1.3,0,2.3-1,2.3-2.3v-9.4
				C-517,360-518.1,359-519.3,359z M-525.1,367h-2.9v-2h2.9h2.3h2.8v2h-2.8H-525.1z"/>
		</g>
	</g>
</g>
<g>
	<g class="st43">
		<path class="st1" d="M-619.3,360h-9.3c-1.3,0-2.3,1-2.3,2.3v9.4c0,1.3,1.1,2.3,2.3,2.3h9.3c1.3,0,2.3-1,2.3-2.3v-9.4
			C-617,361-618.1,360-619.3,360z M-625.2,368h-2.8v-2h2.8h2.3h2.8v2h-2.8H-625.2z"/>
	</g>
	<g>
		<g>
			<path class="st3" d="M-619.3,359h-9.3c-1.3,0-2.3,1-2.3,2.3v9.4c0,1.3,1.1,2.3,2.3,2.3h9.3c1.3,0,2.3-1,2.3-2.3v-9.4
				C-617,360-618.1,359-619.3,359z M-625.2,367h-2.8v-2h2.8h2.3h2.8v2h-2.8H-625.2z"/>
		</g>
	</g>
</g>
<g>
	<g class="st43">
		<path class="st1" d="M-569.3,360h-9.3c-1.3,0-2.3,1-2.3,2.3v9.4c0,1.3,1.1,2.3,2.3,2.3h9.3c1.3,0,2.3-1,2.3-2.3v-9.4
			C-567,361-568.1,360-569.3,360z M-575.2,368h-2.8v-2h2.8h2.3h2.8v2h-2.8H-575.2z"/>
	</g>
	<g>
		<g>
			<path class="st3" d="M-569.3,359h-9.3c-1.3,0-2.3,1-2.3,2.3v9.4c0,1.3,1.1,2.3,2.3,2.3h9.3c1.3,0,2.3-1,2.3-2.3v-9.4
				C-567,360-568.1,359-569.3,359z M-575.2,367h-2.8v-2h2.8h2.3h2.8v2h-2.8H-575.2z"/>
		</g>
	</g>
</g>
<g>
	<g class="st43">
		<path class="st1" d="M-666,413c0,0.6-0.4,1-1,1h-7c-0.6,0-1-0.4-1-1v-7c0-0.6,0.4-1,1-1h7c0.6,0,1,0.4,1,1V413z"/>
		<path class="st1" d="M-678.3,409c0.5,0,1.3-0.8,1.3-1.4v-2.6c0-0.6,0.1-1.1,0.7-1.1h2.7c0.5,0,0.7-0.4,0.7-0.9v-2.6
			c0-0.5-0.1-0.5-0.7-0.5h-7.3c-0.5,0-1,0-1,0.5v7.1c0,0.6,0.4,1.4,1,1.4H-678.3z"/>
	</g>
	<g>
		<g>
			<g>
				<path class="st44" d="M-666,412c0,0.6-0.4,1-1,1h-7c-0.6,0-1-0.4-1-1v-7c0-0.6,0.4-1,1-1h7c0.6,0,1,0.4,1,1V412z"/>
			</g>
			<g>
				<path class="st44" d="M-678.3,408c0.5,0,1.3-0.8,1.3-1.4v-2.6c0-0.6,0.1-1.1,0.7-1.1h2.7c0.5,0,0.7-0.4,0.7-0.9v-2.6
					c0-0.5-0.1-0.5-0.7-0.5h-7.3c-0.5,0-1,0-1,0.5v7.1c0,0.6,0.4,1.4,1,1.4H-678.3z"/>
			</g>
		</g>
	</g>
</g>
<g>
	<g class="st43">
		<path class="st1" d="M-516,413c0,0.6-0.4,1-1,1h-7c-0.6,0-1-0.4-1-1v-7c0-0.6,0.4-1,1-1h7c0.6,0,1,0.4,1,1V413z"/>
		<path class="st1" d="M-528.3,409c0.5,0,1.3-0.8,1.3-1.4v-2.6c0-0.6,0.1-1.1,0.7-1.1h2.7c0.5,0,0.7-0.4,0.7-0.9v-2.6
			c0-0.5-0.1-0.5-0.7-0.5h-7.3c-0.5,0-1,0-1,0.5v7.1c0,0.6,0.5,1.4,1,1.4H-528.3z"/>
	</g>
	<g>
		<g>
			<g>
				<path class="st45" d="M-516,412c0,0.6-0.4,1-1,1h-7c-0.6,0-1-0.4-1-1v-7c0-0.6,0.4-1,1-1h7c0.6,0,1,0.4,1,1V412z"/>
			</g>
			<g>
				<path class="st45" d="M-528.3,408c0.5,0,1.3-0.8,1.3-1.4v-2.6c0-0.6,0.1-1.1,0.7-1.1h2.7c0.5,0,0.7-0.4,0.7-0.9v-2.6
					c0-0.5-0.1-0.5-0.7-0.5h-7.3c-0.5,0-1,0-1,0.5v7.1c0,0.6,0.5,1.4,1,1.4H-528.3z"/>
			</g>
		</g>
	</g>
</g>
<g>
	<g class="st43">
		<path class="st1" d="M-616,413c0,0.6-0.4,1-1,1h-7c-0.6,0-1-0.4-1-1v-7c0-0.6,0.4-1,1-1h7c0.6,0,1,0.4,1,1V413z"/>
		<path class="st1" d="M-628.3,409c0.5,0,1.3-0.8,1.3-1.4v-2.6c0-0.6,0.1-1.1,0.7-1.1h2.7c0.5,0,0.7-0.4,0.7-0.9v-2.6
			c0-0.5-0.1-0.5-0.7-0.5h-7.3c-0.5,0-1,0-1,0.5v7.1c0,0.6,0.4,1.4,1,1.4H-628.3z"/>
	</g>
	<g>
		<g>
			<g>
				<path class="st3" d="M-616,412c0,0.6-0.4,1-1,1h-7c-0.6,0-1-0.4-1-1v-7c0-0.6,0.4-1,1-1h7c0.6,0,1,0.4,1,1V412z"/>
			</g>
			<g>
				<path class="st3" d="M-628.3,408c0.5,0,1.3-0.8,1.3-1.4v-2.6c0-0.6,0.1-1.1,0.7-1.1h2.7c0.5,0,0.7-0.4,0.7-0.9v-2.6
					c0-0.5-0.1-0.5-0.7-0.5h-7.3c-0.5,0-1,0-1,0.5v7.1c0,0.6,0.4,1.4,1,1.4H-628.3z"/>
			</g>
		</g>
	</g>
</g>
<g>
	<g class="st43">
		<path class="st1" d="M-566,413c0,0.6-0.4,1-1,1h-7c-0.6,0-1-0.4-1-1v-7c0-0.6,0.4-1,1-1h7c0.6,0,1,0.4,1,1V413z"/>
		<path class="st1" d="M-578.3,409c0.5,0,1.3-0.8,1.3-1.4v-2.6c0-0.6,0.1-1.1,0.7-1.1h2.7c0.5,0,0.7-0.4,0.7-0.9v-2.6
			c0-0.5-0.1-0.5-0.7-0.5h-7.3c-0.5,0-1,0-1,0.5v7.1c0,0.6,0.4,1.4,1,1.4H-578.3z"/>
	</g>
	<g>
		<g>
			<g>
				<path class="st3" d="M-566,412c0,0.6-0.4,1-1,1h-7c-0.6,0-1-0.4-1-1v-7c0-0.6,0.4-1,1-1h7c0.6,0,1,0.4,1,1V412z"/>
			</g>
			<g>
				<path class="st3" d="M-578.3,408c0.5,0,1.3-0.8,1.3-1.4v-2.6c0-0.6,0.1-1.1,0.7-1.1h2.7c0.5,0,0.7-0.4,0.7-0.9v-2.6
					c0-0.5-0.1-0.5-0.7-0.5h-7.3c-0.5,0-1,0-1,0.5v7.1c0,0.6,0.4,1.4,1,1.4H-578.3z"/>
			</g>
		</g>
	</g>
</g>
<g>
	<g>
		<g class="st0">
			<path class="st1" d="M-668,443.9c-0.5-0.7-4.6-4.1-4.6-4.1s0.1-0.3-0.9-0.3s-5,0-5,0c-1,0-2,1-2,2l0,10.9c0,1,1,2.1,2,2.1h9
				c1,0,2-1,2-2.1c0,0,0-6.3,0-6.9C-667.5,444.5-667.5,444.5-668,443.9z M-669.5,449.5h-9v-1h9L-669.5,449.5z M-669.5,451.5h-9v-1h9
				L-669.5,451.5z M-669.5,447.5h-9v-1h9V447.5z M-669,445.5c-0.4,0-2.2,0-2.9,0c-1.8,0-1.8,0.1-1.8-1.7c0-0.5,0-2.5,0-2.8
				c0-0.3,0.3-0.5,0.8,0c0.5,0.5,3.3,2.8,4,3.5C-668.4,445.1-668.7,445.5-669,445.5z"/>
		</g>
		<g>
			<path class="st44" d="M-668,442.9c-0.5-0.7-4.6-4.1-4.6-4.1s0.1-0.3-0.9-0.3s-5,0-5,0c-1,0-2,1-2,2l0,10.9c0,1,1,2.1,2,2.1h9
				c1,0,2-1,2-2.1c0,0,0-6.3,0-6.9C-667.5,443.5-667.5,443.5-668,442.9z M-669.5,448.5h-9v-1h9L-669.5,448.5z M-669.5,450.5h-9v-1h9
				L-669.5,450.5z M-669.5,446.5h-9v-1h9V446.5z M-669,444.5c-0.4,0-2.2,0-2.9,0c-1.8,0-1.8,0.1-1.8-1.7c0-0.5,0-2.5,0-2.8
				c0-0.3,0.3-0.5,0.8,0c0.5,0.5,3.3,2.8,4,3.5C-668.4,444.1-668.7,444.5-669,444.5z"/>
		</g>
	</g>
</g>
<g>
	<g>
		<g class="st0">
			<path class="st1" d="M-517.5,443.9c-0.5-0.7-4.6-4.1-4.6-4.1s0.1-0.3-0.9-0.3s-5,0-5,0c-1,0-2,1-2,2l0,10.9c0,1,1,2.1,2,2.1h9
				c1,0,2-1,2-2.1c0,0,0-6.3,0-6.9C-517,444.5-517,444.5-517.5,443.9z M-519,449.5h-9v-1h9L-519,449.5z M-519,451.5h-9v-1h9
				L-519,451.5z M-519,447.5h-9v-1h9V447.5z M-518.5,445.5c-0.4,0-2.2,0-2.9,0c-1.8,0-1.8,0.1-1.8-1.7c0-0.5,0-2.5,0-2.8
				c0-0.3,0.3-0.5,0.8,0c0.5,0.5,3.3,2.8,4,3.5C-517.9,445.1-518.2,445.5-518.5,445.5z"/>
		</g>
		<g>
			<path class="st45" d="M-517.5,442.9c-0.5-0.7-4.6-4.1-4.6-4.1s0.1-0.3-0.9-0.3s-5,0-5,0c-1,0-2,1-2,2l0,10.9c0,1,1,2.1,2,2.1h9
				c1,0,2-1,2-2.1c0,0,0-6.3,0-6.9C-517,443.5-517,443.5-517.5,442.9z M-519,448.5h-9v-1h9L-519,448.5z M-519,450.5h-9v-1h9
				L-519,450.5z M-519,446.5h-9v-1h9V446.5z M-518.5,444.5c-0.4,0-2.2,0-2.9,0c-1.8,0-1.8,0.1-1.8-1.7c0-0.5,0-2.5,0-2.8
				c0-0.3,0.3-0.5,0.8,0c0.5,0.5,3.3,2.8,4,3.5C-517.9,444.1-518.2,444.5-518.5,444.5z"/>
		</g>
	</g>
</g>
<g>
	<g>
		<g class="st0">
			<path class="st1" d="M-618,443.9c-0.5-0.7-4.6-4.1-4.6-4.1s0.1-0.3-0.9-0.3c-1,0-5,0-5,0c-1,0-2,1-2,2l0,10.9c0,1,1,2.1,2,2.1h9
				c1,0,2-1,2-2.1c0,0,0-6.3,0-6.9C-617.5,444.5-617.5,444.5-618,443.9z M-619.5,449.5h-9v-1h9L-619.5,449.5z M-619.5,451.5h-9v-1h9
				L-619.5,451.5z M-619.5,447.5h-9v-1h9V447.5z M-619,445.5c-0.4,0-2.2,0-2.9,0c-1.8,0-1.8,0.1-1.8-1.7c0-0.5,0-2.5,0-2.8
				c0-0.3,0.3-0.5,0.8,0c0.5,0.5,3.3,2.8,4,3.5C-618.4,445.1-618.7,445.5-619,445.5z"/>
		</g>
		<g>
			<path class="st3" d="M-618,442.9c-0.5-0.7-4.6-4.1-4.6-4.1s0.1-0.3-0.9-0.3c-1,0-5,0-5,0c-1,0-2,1-2,2l0,10.9c0,1,1,2.1,2,2.1h9
				c1,0,2-1,2-2.1c0,0,0-6.3,0-6.9C-617.5,443.5-617.5,443.5-618,442.9z M-619.5,448.5h-9v-1h9L-619.5,448.5z M-619.5,450.5h-9v-1h9
				L-619.5,450.5z M-619.5,446.5h-9v-1h9V446.5z M-619,444.5c-0.4,0-2.2,0-2.9,0c-1.8,0-1.8,0.1-1.8-1.7c0-0.5,0-2.5,0-2.8
				c0-0.3,0.3-0.5,0.8,0c0.5,0.5,3.3,2.8,4,3.5C-618.4,444.1-618.7,444.5-619,444.5z"/>
		</g>
	</g>
</g>
<g>
	<g>
		<g class="st0">
			<path class="st1" d="M-568,443.9c-0.5-0.7-4.6-4.1-4.6-4.1s0.1-0.3-0.9-0.3c-1,0-5,0-5,0c-1,0-2,1-2,2l0,10.9c0,1,1,2.1,2,2.1h9
				c1,0,2-1,2-2.1c0,0,0-6.3,0-6.9C-567.5,444.5-567.5,444.5-568,443.9z M-569.5,449.5h-9v-1h9L-569.5,449.5z M-569.5,451.5h-9v-1h9
				L-569.5,451.5z M-569.5,447.5h-9v-1h9V447.5z M-569,445.5c-0.4,0-2.2,0-2.9,0c-1.8,0-1.8,0.1-1.8-1.7c0-0.5,0-2.5,0-2.8
				c0-0.3,0.3-0.5,0.8,0c0.5,0.5,3.3,2.8,4,3.5C-568.4,445.1-568.7,445.5-569,445.5z"/>
		</g>
		<g>
			<path class="st3" d="M-568,442.9c-0.5-0.7-4.6-4.1-4.6-4.1s0.1-0.3-0.9-0.3c-1,0-5,0-5,0c-1,0-2,1-2,2l0,10.9c0,1,1,2.1,2,2.1h9
				c1,0,2-1,2-2.1c0,0,0-6.3,0-6.9C-567.5,443.5-567.5,443.5-568,442.9z M-569.5,448.5h-9v-1h9L-569.5,448.5z M-569.5,450.5h-9v-1h9
				L-569.5,450.5z M-569.5,446.5h-9v-1h9V446.5z M-569,444.5c-0.4,0-2.2,0-2.9,0c-1.8,0-1.8,0.1-1.8-1.7c0-0.5,0-2.5,0-2.8
				c0-0.3,0.3-0.5,0.8,0c0.5,0.5,3.3,2.8,4,3.5C-568.4,444.1-568.7,444.5-569,444.5z"/>
		</g>
	</g>
</g>
<g>
	<g class="st43">
		<path class="st1" d="M-667.8,521.3c0-1.3-3.1-2.2-7-2.2s-7,0.9-7,2.1c0,0.2,0,0.2,0,0.2c0.2,0.2,0.3,0.3,0.3,0.3s0.3,0.3,0.7,0.7
			l3.7,4.2c0.4,0.4,0.7,1.2,0.7,1.7v2.2c0,0.5,0.4,1.2,0.9,1.4l1.2,0.6c0.5,0.2,0.9,0,0.9-0.6v-3.4c0-0.6,0.3-1.3,0.7-1.7l4.1-4.5
			c0.4-0.4,0.7-0.7,0.7-0.7s0.1-0.1,0.2-0.2C-667.8,521.5-667.8,521.5-667.8,521.3z M-674.8,522.6c-3,0-5.5-0.5-5.5-1.2
			c0-0.7,2.4-1.2,5.5-1.2c3,0,5.5,0.5,5.5,1.2C-669.3,522.1-671.7,522.6-674.8,522.6z"/>
		<polygon class="st1" points="-671.2,532 -666.2,532 -668.8,535 		"/>
	</g>
	<g>
		<g>
			<g>
				<g>
					<path class="st44" d="M-667.8,520.3c0-1.3-3.1-2.2-7-2.2s-7,0.9-7,2.1c0,0.2,0,0.2,0,0.2c0.2,0.2,0.3,0.3,0.3,0.3
						s0.3,0.3,0.7,0.7l3.7,4.2c0.4,0.4,0.7,1.2,0.7,1.7v2.2c0,0.5,0.4,1.2,0.9,1.4l1.2,0.6c0.5,0.2,0.9,0,0.9-0.6v-3.4
						c0-0.6,0.3-1.3,0.7-1.7l4.1-4.5c0.4-0.4,0.7-0.7,0.7-0.7s0.1-0.1,0.2-0.2C-667.8,520.5-667.8,520.5-667.8,520.3z M-674.8,521.6
						c-3,0-5.5-0.5-5.5-1.2c0-0.7,2.4-1.2,5.5-1.2c3,0,5.5,0.5,5.5,1.2C-669.3,521.1-671.7,521.6-674.8,521.6z"/>
				</g>
			</g>
			<polygon class="st44" points="-671.2,531 -666.2,531 -668.8,534 			"/>
		</g>
	</g>
</g>
<g>
	<g class="st43">
		<path class="st1" d="M-517.7,521.3c0-1.3-3.1-2.2-7-2.2s-7,0.9-7,2.1c0,0.2,0,0.2,0,0.2c0.2,0.2,0.3,0.3,0.3,0.3
			c0,0,0.3,0.3,0.7,0.7l3.7,4.2c0.4,0.4,0.7,1.2,0.7,1.7v2.2c0,0.5,0.4,1.2,0.9,1.4l1.2,0.6c0.5,0.2,0.9,0,0.9-0.6v-3.4
			c0-0.5,0.3-1.3,0.7-1.7l4.1-4.5c0.4-0.4,0.7-0.7,0.7-0.7s0.1-0.1,0.2-0.2C-517.7,521.5-517.7,521.5-517.7,521.3z M-524.7,522.6
			c-3,0-5.5-0.5-5.5-1.2c0-0.7,2.4-1.2,5.5-1.2c3,0,5.5,0.5,5.5,1.2C-519.3,522.1-521.7,522.6-524.7,522.6z"/>
		<polygon class="st1" points="-521.2,532 -516.2,532 -518.7,535 		"/>
	</g>
	<g>
		<g>
			<g>
				<g>
					<path class="st45" d="M-517.7,520.3c0-1.3-3.1-2.2-7-2.2s-7,0.9-7,2.1c0,0.2,0,0.2,0,0.2c0.2,0.2,0.3,0.3,0.3,0.3
						c0,0,0.3,0.3,0.7,0.7l3.7,4.2c0.4,0.4,0.7,1.2,0.7,1.7v2.2c0,0.5,0.4,1.2,0.9,1.4l1.2,0.6c0.5,0.2,0.9,0,0.9-0.6v-3.4
						c0-0.5,0.3-1.3,0.7-1.7l4.1-4.5c0.4-0.4,0.7-0.7,0.7-0.7s0.1-0.1,0.2-0.2C-517.7,520.5-517.7,520.5-517.7,520.3z M-524.7,521.6
						c-3,0-5.5-0.5-5.5-1.2c0-0.7,2.4-1.2,5.5-1.2c3,0,5.5,0.5,5.5,1.2C-519.3,521.1-521.7,521.6-524.7,521.6z"/>
				</g>
			</g>
			<polygon class="st45" points="-521.2,531 -516.2,531 -518.7,534 			"/>
		</g>
	</g>
</g>
<g>
	<g class="st43">
		<path class="st1" d="M-617.8,521.3c0-1.3-3.1-2.2-7-2.2s-7,0.9-7,2.1c0,0.2,0,0.2,0,0.2c0.2,0.2,0.3,0.3,0.3,0.3s0.3,0.3,0.7,0.7
			l3.7,4.2c0.4,0.4,0.7,1.2,0.7,1.7v2.2c0,0.5,0.4,1.2,0.9,1.4l1.2,0.6c0.5,0.2,0.9,0,0.9-0.6v-3.4c0-0.6,0.3-1.3,0.7-1.7l4.1-4.5
			c0.4-0.4,0.7-0.7,0.7-0.7c0,0,0.1-0.1,0.2-0.2C-617.8,521.5-617.8,521.5-617.8,521.3z M-624.8,522.6c-3,0-5.5-0.5-5.5-1.2
			c0-0.7,2.4-1.2,5.5-1.2c3,0,5.5,0.5,5.5,1.2C-619.3,522.1-621.7,522.6-624.8,522.6z"/>
		<polygon class="st1" points="-621.2,532 -616.2,532 -618.8,535 		"/>
	</g>
	<g>
		<g>
			<g>
				<g>
					<path class="st3" d="M-617.8,520.3c0-1.3-3.1-2.2-7-2.2s-7,0.9-7,2.1c0,0.2,0,0.2,0,0.2c0.2,0.2,0.3,0.3,0.3,0.3
						s0.3,0.3,0.7,0.7l3.7,4.2c0.4,0.4,0.7,1.2,0.7,1.7v2.2c0,0.5,0.4,1.2,0.9,1.4l1.2,0.6c0.5,0.2,0.9,0,0.9-0.6v-3.4
						c0-0.6,0.3-1.3,0.7-1.7l4.1-4.5c0.4-0.4,0.7-0.7,0.7-0.7c0,0,0.1-0.1,0.2-0.2C-617.8,520.5-617.8,520.5-617.8,520.3z
						 M-624.8,521.6c-3,0-5.5-0.5-5.5-1.2c0-0.7,2.4-1.2,5.5-1.2c3,0,5.5,0.5,5.5,1.2C-619.3,521.1-621.7,521.6-624.8,521.6z"/>
				</g>
			</g>
			<polygon class="st3" points="-621.2,531 -616.2,531 -618.8,534 			"/>
		</g>
	</g>
</g>
<g>
	<g class="st43">
		<path class="st1" d="M-567.8,521.3c0-1.3-3.1-2.2-7-2.2s-7,0.9-7,2.1c0,0.2,0,0.2,0,0.2c0.2,0.2,0.3,0.3,0.3,0.3s0.3,0.3,0.7,0.7
			l3.7,4.2c0.4,0.4,0.7,1.2,0.7,1.7v2.2c0,0.5,0.4,1.2,0.9,1.4l1.2,0.6c0.5,0.2,0.9,0,0.9-0.6v-3.4c0-0.5,0.3-1.3,0.7-1.7l4.1-4.5
			c0.4-0.4,0.7-0.7,0.7-0.7c0,0,0.1-0.1,0.2-0.2C-567.8,521.5-567.8,521.5-567.8,521.3z M-574.8,522.6c-3,0-5.5-0.5-5.5-1.2
			c0-0.7,2.4-1.2,5.5-1.2c3,0,5.5,0.5,5.5,1.2C-569.3,522.1-571.7,522.6-574.8,522.6z"/>
		<polygon class="st1" points="-571.2,532 -566.2,532 -568.8,535 		"/>
	</g>
	<g>
		<g>
			<g>
				<g>
					<path class="st3" d="M-567.8,520.3c0-1.3-3.1-2.2-7-2.2s-7,0.9-7,2.1c0,0.2,0,0.2,0,0.2c0.2,0.2,0.3,0.3,0.3,0.3
						s0.3,0.3,0.7,0.7l3.7,4.2c0.4,0.4,0.7,1.2,0.7,1.7v2.2c0,0.5,0.4,1.2,0.9,1.4l1.2,0.6c0.5,0.2,0.9,0,0.9-0.6v-3.4
						c0-0.5,0.3-1.3,0.7-1.7l4.1-4.5c0.4-0.4,0.7-0.7,0.7-0.7c0,0,0.1-0.1,0.2-0.2C-567.8,520.5-567.8,520.5-567.8,520.3z
						 M-574.8,521.6c-3,0-5.5-0.5-5.5-1.2c0-0.7,2.4-1.2,5.5-1.2c3,0,5.5,0.5,5.5,1.2C-569.3,521.1-571.7,521.6-574.8,521.6z"/>
				</g>
			</g>
			<polygon class="st3" points="-571.2,531 -566.2,531 -568.8,534 			"/>
		</g>
	</g>
</g>
<g>
	<g>
		<g class="st0">
			<path class="st1" d="M-674,560c-3.9,0-7,3.1-7,7s3.1,7,7,7c3.9,0,7-3.1,7-7S-670.1,560-674,560z M-669.4,570l-1.7,1.7l-3-3l-3,3
				l-1.7-1.7l3-3l-3-3l1.7-1.7l3,3l3-3l1.7,1.7l-3,3L-669.4,570z"/>
		</g>
		<g>
			<path class="st2" d="M-674,559c-3.9,0-7,3.1-7,7s3.1,7,7,7c3.9,0,7-3.1,7-7S-670.1,559-674,559z M-669.4,569l-1.7,1.7l-3-3l-3,3
				l-1.7-1.7l3-3l-3-3l1.7-1.7l3,3l3-3l1.7,1.7l-3,3L-669.4,569z"/>
		</g>
	</g>
</g>
<g>
	<g>
		<g class="st0">
			<path class="st1" d="M-624,560c-3.9,0-7,3.1-7,7s3.1,7,7,7c3.9,0,7-3.1,7-7S-620.1,560-624,560z M-619.4,570l-1.7,1.7l-3-3l-3,3
				l-1.7-1.7l3-3l-3-3l1.7-1.7l3,3l3-3l1.7,1.7l-3,3L-619.4,570z"/>
		</g>
		<g>
			<path class="st3" d="M-624,559c-3.9,0-7,3.1-7,7s3.1,7,7,7c3.9,0,7-3.1,7-7S-620.1,559-624,559z M-619.4,569l-1.7,1.7l-3-3l-3,3
				l-1.7-1.7l3-3l-3-3l1.7-1.7l3,3l3-3l1.7,1.7l-3,3L-619.4,569z"/>
		</g>
	</g>
</g>
<g>
	<linearGradient id="SVGID_36_" gradientUnits="userSpaceOnUse" x1="-574" y1="578" x2="-574" y2="554">
		<stop  offset="0" style="stop-color:#DCEEFE"/>
		<stop  offset="1" style="stop-color:#A5B9CB"/>
	</linearGradient>
	<path class="st46" d="M-583.5,578c-1.4,0-2.5-1.1-2.5-2.5v-19c0-1.4,1.1-2.5,2.5-2.5h19c1.4,0,2.5,1.1,2.5,2.5v19
		c0,1.4-1.1,2.5-2.5,2.5H-583.5z"/>
	<path class="st29" d="M-564.5,555c1.1,0,1.5,0.4,1.5,1.5v19c0,1.1-0.4,2.5-1.5,2.5h-19c-1.1,0-2.5-1.4-2.5-2.5v-19
		c0-1.1,1.4-1.5,2.5-1.5h18.5 M-564.5,554h-19c-1.7,0-3.5,0.8-3.5,2.5v19c0,1.7,1.8,3.5,3.5,3.5h19c1.7,0,2.5-1.8,2.5-3.5v-19
		C-562,554.8-562.8,554-564.5,554L-564.5,554z"/>
</g>
<g>
	<linearGradient id="SVGID_37_" gradientUnits="userSpaceOnUse" x1="-574" y1="618" x2="-574" y2="594">
		<stop  offset="0" style="stop-color:#DCEEFE"/>
		<stop  offset="1" style="stop-color:#A5B9CB"/>
	</linearGradient>
	<path class="st47" d="M-583.5,618c-1.4,0-2.5-1.1-2.5-2.5v-19c0-1.4,1.1-2.5,2.5-2.5h19c1.4,0,2.5,1.1,2.5,2.5v19
		c0,1.4-1.1,2.5-2.5,2.5H-583.5z"/>
	<path class="st29" d="M-564.5,595c1.1,0,1.5,0.4,1.5,1.5v19c0,1.1-0.4,2.5-1.5,2.5h-19c-1.1,0-2.5-1.4-2.5-2.5v-19
		c0-1.1,1.4-1.5,2.5-1.5h18.5 M-564.5,594h-19c-1.7,0-3.5,0.8-3.5,2.5v19c0,1.7,1.8,3.5,3.5,3.5h19c1.7,0,2.5-1.8,2.5-3.5v-19
		C-562,594.8-562.8,594-564.5,594L-564.5,594z"/>
</g>
<g>
	<g>
		<g class="st0">
			<path class="st1" d="M-574,560c-3.9,0-7,3.1-7,7s3.1,7,7,7c3.9,0,7-3.1,7-7S-570.1,560-574,560z M-569.4,570l-1.7,1.7l-3-3l-3,3
				l-1.7-1.7l3-3l-3-3l1.7-1.7l3,3l3-3l1.7,1.7l-3,3L-569.4,570z"/>
		</g>
		<g>
			<path class="st3" d="M-574,559c-3.9,0-7,3.1-7,7s3.1,7,7,7c3.9,0,7-3.1,7-7S-570.1,559-574,559z M-569.4,569l-1.7,1.7l-3-3l-3,3
				l-1.7-1.7l3-3l-3-3l1.7-1.7l3,3l3-3l1.7,1.7l-3,3L-569.4,569z"/>
		</g>
	</g>
</g>
<use xlink:href="#remove"  width="13" height="14.2" id="XMLID_19_" x="-6.5" y="-7.2" transform="matrix(1 0 0 -1 -674 606)" style="overflow:visible;"/>
<rect x="-690" y="630" class="st48" width="32" height="32"/>
<g>
	<polygon class="st49" points="-678.5,650 -674,645.5 -669.5,650 	"/>
	<line class="st50" x1="-670" y1="642.5" x2="-678" y2="642.5"/>
</g>
<rect x="-690" y="670" class="st48" width="32" height="32"/>
<rect x="-640" y="710" class="st51" width="32" height="32"/>
<g>
	<polygon class="st49" points="-669.5,682 -674,686.5 -678.5,682 	"/>
	<line class="st50" x1="-678" y1="689.5" x2="-670" y2="689.5"/>
</g>
<rect x="-640" y="630" class="st1" width="32" height="32"/>
<g>
	<polygon class="st3" points="-628,650 -623.5,645.5 -619,650 	"/>
	<line class="st52" x1="-619" y1="642.5" x2="-628" y2="642.5"/>
</g>
<rect x="-640" y="670" class="st1" width="32" height="32"/>
<g>
	<polygon class="st3" points="-619.5,682 -624,686.5 -628.5,682 	"/>
	<line class="st52" x1="-628" y1="689.5" x2="-620" y2="689.5"/>
</g>
<g id="multiple_messages">
</g>
<path class="st53" d="M-259.2,364.8h-3.5c-0.1,0-0.1-0.1-0.1-0.1v-3.5c0-0.1-0.1-0.1-0.1-0.1h-2.1c-0.1,0-0.1,0.1-0.1,0.1v3.5
	c0,0.1-0.1,0.1-0.1,0.1h-3.5c-0.1,0-0.1,0.1-0.1,0.1v2.1c0,0.1,0.1,0.1,0.1,0.1h3.5c0.1,0,0.1,0.1,0.1,0.1v3.5
	c0,0.1,0.1,0.1,0.1,0.1h2.1c0.1,0,0.1-0.1,0.1-0.1v-3.5c0-0.1,0.1-0.1,0.1-0.1h3.5c0.1,0,0.1-0.1,0.1-0.1v-2.1
	C-259,364.9-259.1,364.8-259.2,364.8z"/>
<rect x="-225" y="355" class="st14" width="22" height="22"/>
<path class="st53" d="M-209.2,364.8h-3.5c-0.1,0-0.1-0.1-0.1-0.1v-3.5c0-0.1-0.1-0.1-0.1-0.1h-2.1c-0.1,0-0.1,0.1-0.1,0.1v3.5
	c0,0.1-0.1,0.1-0.1,0.1h-3.5c-0.1,0-0.1,0.1-0.1,0.1v2.1c0,0.1,0.1,0.1,0.1,0.1h3.5c0.1,0,0.1,0.1,0.1,0.1v3.5
	c0,0.1,0.1,0.1,0.1,0.1h2.1c0.1,0,0.1-0.1,0.1-0.1v-3.5c0-0.1,0.1-0.1,0.1-0.1h3.5c0.1,0,0.1-0.1,0.1-0.1v-2.1
	C-209,364.9-209.1,364.8-209.2,364.8z"/>
<line class="st54" x1="-607.5" y1="630" x2="-607.5" y2="662"/>
<line class="st54" x1="-639.5" y1="630" x2="-639.5" y2="662"/>
<line class="st54" x1="-607.5" y1="670" x2="-607.5" y2="702"/>
<line class="st54" x1="-639.5" y1="670" x2="-639.5" y2="702"/>
<g>
	<g class="st0">
		<path class="st1" d="M-624,600.2c-3.6,0-6.5,2.9-6.5,6.5s2.9,6.5,6.5,6.5c3.6,0,6.5-2.9,6.5-6.5S-620.4,600.2-624,600.2z
			 M-620,605.5v2.3l-7.9,0v-2.3L-620,605.5z"/>
	</g>
	<g>
		<path class="st3" d="M-624,599c-3.6,0-6.5,2.9-6.5,6.5s2.9,6.5,6.5,6.5c3.6,0,6.5-2.9,6.5-6.5S-620.4,599-624,599z M-620,604.3
			v2.3l-7.9,0v-2.3L-620,604.3z"/>
	</g>
</g>
<g>
	<g class="st0">
		<path class="st1" d="M-574,600.2c-3.6,0-6.5,2.9-6.5,6.5s2.9,6.5,6.5,6.5c3.6,0,6.5-2.9,6.5-6.5S-570.4,600.2-574,600.2z
			 M-570,605.5v2.3l-7.9,0v-2.3L-570,605.5z"/>
	</g>
	<g>
		<path class="st3" d="M-574,599c-3.6,0-6.5,2.9-6.5,6.5s2.9,6.5,6.5,6.5c3.6,0,6.5-2.9,6.5-6.5S-570.4,599-574,599z M-570,604.3
			v2.3l-7.9,0v-2.3L-570,604.3z"/>
	</g>
</g>
<g>
	<g class="st43">
		<polygon class="st1" points="-268,487 -268,493 -264.1,490 -260.6,487 -264.3,484 -268,481 		"/>
	</g>
	<g>
		<polygon class="st3" points="-268,486 -268,492 -264.1,489 -260.6,486 -264.3,483 -268,480 		"/>
	</g>
</g>
<g>
	<g class="st43">
		<polygon class="st1" points="-261,447 -261,441 -264.4,444 -267.6,447 -264.3,450 -261,453 		"/>
	</g>
	<g>
		<polygon class="st3" points="-261,446 -261,440 -264.4,443 -267.6,446 -264.3,449 -261,452 		"/>
	</g>
</g>
<g>
	<g class="st43">
		<polygon class="st1" points="-268,527 -268,533 -264.8,530 -262,527 -265,524 -268,521 		"/>
	</g>
	<g>
		<polygon class="st3" points="-268,526 -268,532 -264.8,529 -262,526 -265,523 -268,520 		"/>
	</g>
</g>
<rect x="-262" y="520" class="st3" width="2" height="12"/>
<g>
	<g class="st0">
		<polygon class="st1" points="-260,407 -260,413 -263,410 -266,407 -263,404 -260,401 		"/>
	</g>
	<g>
		<polygon class="st3" points="-260,406 -260,412 -263,409 -266,406 -263,403 -260,400 		"/>
	</g>
</g>
<g>
	<g class="st0">
		<rect x="-268" y="401" class="st1" width="2" height="12"/>
	</g>
	<g>
		<rect x="-268" y="400" class="st3" width="2" height="12"/>
	</g>
</g>
<g>
	<g class="st43">
		<polygon class="st1" points="-218,487 -218,493 -214.1,490 -210.6,487 -214.3,484 -218,481 		"/>
	</g>
	<g>
		<polygon class="st3" points="-218,486 -218,492 -214.1,489 -210.6,486 -214.3,483 -218,480 		"/>
	</g>
</g>
<g>
	<g class="st43">
		<polygon class="st1" points="-218,527 -218,533 -214.8,530 -212,527 -215,524 -218,521 		"/>
		<rect x="-212" y="521" class="st1" width="2" height="12"/>
	</g>
	<g>
		<g>
			<polygon class="st3" points="-218,526 -218,532 -214.8,529 -212,526 -215,523 -218,520 			"/>
			<rect x="-212" y="520" class="st3" width="2" height="12"/>
		</g>
	</g>
</g>
<g>
	<g class="st43">
		<polygon class="st1" points="-211,447 -211,453 -214.2,450 -217.6,447 -214.3,444 -211,441 		"/>
	</g>
	<g>
		<g>
			<polygon class="st3" points="-211,446 -211,452 -214.2,449 -217.6,446 -214.3,443 -211,440 			"/>
		</g>
	</g>
</g>
<g>
	<g class="st43">
		<polygon class="st1" points="-210,407 -210,413 -213,410 -216,407 -213,404 -210,401 		"/>
	</g>
	<g>
		<polygon class="st3" points="-210,406 -210,412 -213,409 -216,406 -213,403 -210,400 		"/>
	</g>
</g>
<g>
	<g class="st0">
		<rect x="-218" y="401" class="st1" width="2" height="12"/>
	</g>
	<g>
		<rect x="-218" y="400" class="st3" width="2" height="12"/>
	</g>
</g>
<polygon class="st55" points="-168,486 -168,492 -164.1,489 -160.6,486 -164.3,483 -168,480 "/>
<polygon class="st55" points="-168,526 -168,532 -164.8,529 -162,526 -165,523 -168,520 "/>
<rect x="-162" y="520" class="st55" width="2" height="12"/>
<g>
	<g class="st0">
		<polygon class="st1" points="-161,447 -161,453 -164.2,450 -167.6,447 -164.3,444 -161,441 		"/>
	</g>
	<g>
		<g>
			<polygon class="st55" points="-161,446 -161,452 -164.2,449 -167.6,446 -164.3,443 -161,440 			"/>
		</g>
	</g>
</g>
<g>
	<g class="st0">
		<polygon class="st1" points="-160,407 -160,413 -163,410 -166,407 -163,404 -160,401 		"/>
	</g>
	<g>
		<polygon class="st55" points="-160,406 -160,412 -163,409 -166,406 -163,403 -160,400 		"/>
	</g>
</g>
<g>
	<g class="st0">
		<rect x="-168" y="401" class="st1" width="2" height="12"/>
	</g>
	<g>
		<rect x="-168" y="400" class="st55" width="2" height="12"/>
	</g>
</g>
<polygon class="st56" points="-118,486 -118,492 -114.1,489 -110.6,486 -114.3,483 -118,480 "/>
<polygon class="st56" points="-118,526 -118,532 -114.8,529 -112,526 -115,523 -118,520 "/>
<rect x="-112" y="520" class="st56" width="2" height="12"/>
<g>
	<g class="st0">
		<polygon class="st1" points="-111,447 -111,453 -114.2,450 -117.6,447 -114.3,444 -111,441 		"/>
	</g>
	<g>
		<g>
			<polygon class="st56" points="-111,446 -111,452 -114.2,449 -117.6,446 -114.3,443 -111,440 			"/>
		</g>
	</g>
</g>
<g>
	<g class="st0">
		<polygon class="st1" points="-110,407 -110,413 -113,410 -116,407 -113,404 -110,401 		"/>
	</g>
	<g>
		<polygon class="st56" points="-110,406 -110,412 -113,409 -116,406 -113,403 -110,400 		"/>
	</g>
</g>
<g>
	<g class="st0">
		<rect x="-118" y="401" class="st1" width="2" height="12"/>
	</g>
	<g>
		<rect x="-118" y="400" class="st56" width="2" height="12"/>
	</g>
</g>
<rect x="-280" y="830" class="st57" width="100" height="32"/>
<g>
	<path class="st58" d="M-665.2,845.4c0,5.2-4.2,9.4-9.4,9.4c-5.2,0-9.4-4.2-9.4-9.4c0-5.2,4.2-9.4,9.4-9.4
		C-669.4,836-665.2,840.2-665.2,845.4"/>
	<g>
		<path class="st34" d="M-674.7,850.4c-1.2,0-1.3,0-1.3-0.9c0-1.5,0.1-1.5,1.3-1.5c1.2,0,1.3,0,1.3,1.5
			C-673.4,850.3-673.5,850.4-674.7,850.4"/>
		<path class="st34" d="M-673.3,846.4c-0.3,0.8-0.4,0.9-1.3,0.9c-0.9,0-1.1-0.1-1.3-0.9c0,0-0.9-4.2-0.9-4.3c0-1.7,0.9-1.7,1.7-1.7
			c0.2,0,0.7,0,0.8,0c0.9,0,1.8,0,1.8,1.7L-673.3,846.4"/>
	</g>
</g>
<g>
	<circle class="st59" cx="-674.6" cy="805.4" r="9.4"/>
	<path class="st34" d="M-668.6,802.6c0-0.1-0.2-0.4-0.4-0.5l-0.3-0.4c-0.2-0.2-0.4-0.3-0.5-0.4c-0.1,0-0.5,0.2-0.7,0.4l-6.3,6.8
		c-0.2,0.2-0.4,0.2-0.6,0l-2.3-2.4c-0.2-0.2-0.4-0.3-0.5-0.4c-0.1,0-0.5,0.2-0.7,0.4l-0.3,0.4c-0.2,0.2-0.3,0.4-0.4,0.5
		c0,0.1,0.2,0.5,0.4,0.7l3.5,3.7c0.2,0.2,0.4,0.3,0.5,0.4c0.1,0,0.5-0.2,0.7-0.4l0.3-0.4c0.2-0.2,0.3-0.3,0.3-0.3
		c0,0,0.2-0.2,0.3-0.4l6.5-7C-668.8,803.2-668.6,802.8-668.6,802.6"/>
</g>
<g>
	<path class="st60" d="M-684,885.4c0-5.2,4.3-9.4,9.5-9.4s9.5,4.2,9.5,9.4c0,5.2-4.3,9.4-9.5,9.4S-684,890.6-684,885.4"/>
	<path class="st34" d="M-674.5,879.9c1.3,0,1.5,0,1.5,1c0,1.6-0.2,1.6-1.5,1.6c-1.3,0-1.5,0-1.5-1.6
		C-676,880-675.8,879.9-674.5,879.9"/>
	<path class="st34" d="M-676,884.5c0-0.6,0.4-1.1,1.5-1.1c1.1,0,1.5,0.5,1.5,1.1c0,0.6,0,2.6,0,4.5c0,2,0.3,2-1.4,2
		c-1.6,0-1.6,0-1.6-1.9C-676,889.1-676,885.1-676,884.5"/>
</g>
<g>
	<path class="st61" d="M-665.5,930.6l-7.7-13.5c-0.8-1.4-2-1.4-2.8,0l-7.7,13.5c-0.8,1.4-0.1,2.4,1.4,2.4h15.3
		C-665.4,933-664.7,931.9-665.5,930.6"/>
	<path class="st34" d="M-674.6,931.7c-1.1,0-1.2,0-1.2-0.9c0-1.4,0.1-1.4,1.2-1.4c1.1,0,1.3,0,1.3,1.4
		C-673.4,931.5-673.5,931.7-674.6,931.7"/>
	<path class="st34" d="M-673.3,926.8c-0.3,0.8-0.4,0.8-1.2,0.8c-0.8,0-1-0.1-1.2-0.8c0,0-0.8-4-0.8-4.1c0-1.7,0.8-1.7,1.6-1.6
		c0.1,0,0.6,0,0.8,0c0.8,0,1.7,0,1.6,1.7L-673.3,926.8"/>
</g>
<g>
	<g>
		<path class="st31" d="M-665.9,772.5c0.5,0.5,0.5,1.2,0,1.7c-0.5,0.5-1.2,0.5-1.7,0l-3.7-3.7c-2.5,1.8-5.8,1.8-8.3,0
			c-3.2-2.3-4-6.8-1.7-10c2.3-3.2,6.8-4,10-1.7c3.2,2.3,4,6.8,1.7,10L-665.9,772.5L-665.9,772.5z M-670.2,764.7
			c0-2.8-2.3-5.1-5.1-5.1c-2.8,0-5.1,2.3-5.1,5.1c0,2.8,2.3,5.1,5.1,5.1C-672.5,769.8-670.2,767.5-670.2,764.7L-670.2,764.7z"/>
	</g>
</g>
<polygon class="st49" points="-671.7,724 -676.3,719.5 -678.2,721.5 -673.7,726 -678.2,730.5 -676.3,732.5 -669.8,726 "/>
<polygon class="st49" points="-578.2,726 -571.7,732.5 -569.8,730.5 -574.3,726 -569.8,721.5 -571.7,719.5 -576.3,724 "/>
<polygon class="st49" points="-539,730.2 -532.5,723.7 -534.5,721.8 -539,726.3 -543.5,721.8 -545.5,723.7 -541,728.3 "/>
<polygon class="st49" points="-504,721.8 -510.5,728.3 -508.5,730.2 -504,725.7 -499.5,730.2 -497.5,728.3 -502,723.7 "/>
<polygon class="st1" points="-621.7,724 -626.3,719.5 -628.2,721.5 -623.7,726 -628.2,730.5 -626.3,732.5 -619.8,726 "/>
<g>
	<g class="st43">
		<path class="st1" d="M-258.1,122.8l-1-1c-0.6-0.6-1.5-0.6-2.1,0l-3.4,3.4c-0.6,0.6-0.6,1.5,0,2.1l1,1c0.6,0.6,1.5,0.6,2.1,0
			l3.4-3.4C-257.5,124.3-257.5,123.4-258.1,122.8z"/>
		<path class="st1" d="M-263.8,130.6l-1.5-1.5l-1.6-1.5l-0.1,1.6v0c0,0.9,0.8,1.5,1.6,1.5l0,0L-263.8,130.6z"/>
		<path class="st1" d="M-257,126v0.7v3.5c0,0.8-0.7,1.8-1.5,1.8h-11c-0.8,0-1.5-1-1.5-1.8v-2c0-0.8,0.7-1.2,1.5-1.2h2.5v-1h-3.5
			c-0.8,0-1.5,0.4-1.5,1.2v4c0,0.8,0.7,1.8,1.5,1.8h13c0.8,0,1.5-1,1.5-1.8V126H-257z"/>
	</g>
	<g>
		<g>
			<path class="st62" d="M-258.1,121.8l-1-1c-0.6-0.6-1.5-0.6-2.1,0l-3.4,3.4c-0.6,0.6-0.6,1.5,0,2.1l1,1c0.6,0.6,1.5,0.6,2.1,0
				l3.4-3.4C-257.5,123.3-257.5,122.4-258.1,121.8z"/>
			<path class="st62" d="M-263.8,129.6l-1.5-1.5l-1.6-1.5l-0.1,1.6v0c0,0.9,0.8,1.5,1.6,1.5l0,0L-263.8,129.6z"/>
			<path class="st62" d="M-257,125v0.7v3.5c0,0.8-0.7,1.8-1.5,1.8h-11c-0.8,0-1.5-1-1.5-1.8v-2c0-0.8,0.7-1.2,1.5-1.2h2.5v-1h-3.5
				c-0.8,0-1.5,0.4-1.5,1.2v4c0,0.8,0.7,1.8,1.5,1.8h13c0.8,0,1.5-1,1.5-1.8V125H-257z"/>
		</g>
	</g>
</g>
<g>
	<g class="st43">
		<path class="st1" d="M-267,170h-2c0,0,0-0.5,0-1s0-1,0-1h2c0,0,0,0.5,0,1S-267,170-267,170z"/>
		<path class="st1" d="M-263,170h-2c0,0,0-0.5,0-1s0-1,0-1h2c0,0,0,0.5,0,1S-263,170-263,170z"/>
		<path class="st1" d="M-259,170h-2c0,0,0-0.5,0-1s0-1,0-1h2c0,0,0,0.5,0,1S-259,170-259,170z"/>
	</g>
	<g>
		<g>
			<g>
				<path class="st63" d="M-267,169h-2c0,0,0-0.5,0-1s0-1,0-1h2c0,0,0,0.5,0,1S-267,169-267,169z"/>
			</g>
			<g>
				<path class="st63" d="M-263,169h-2c0,0,0-0.5,0-1s0-1,0-1h2c0,0,0,0.5,0,1S-263,169-263,169z"/>
			</g>
			<g>
				<path class="st63" d="M-259,169h-2c0,0,0-0.5,0-1s0-1,0-1h2c0,0,0,0.5,0,1S-259,169-259,169z"/>
			</g>
		</g>
	</g>
</g>
<g>
	<g class="st43">
		<path class="st1" d="M-217,170h-2c0,0,0-0.5,0-1s0-1,0-1h2c0,0,0,0.5,0,1S-217,170-217,170z"/>
		<path class="st1" d="M-213,170h-2c0,0,0-0.5,0-1s0-1,0-1h2c0,0,0,0.5,0,1S-213,170-213,170z"/>
		<path class="st1" d="M-209,170h-2c0,0,0-0.5,0-1s0-1,0-1h2c0,0,0,0.5,0,1S-209,170-209,170z"/>
	</g>
	<g>
		<g>
			<g>
				<path class="st63" d="M-217,169h-2c0,0,0-0.5,0-1s0-1,0-1h2c0,0,0,0.5,0,1S-217,169-217,169z"/>
			</g>
			<g>
				<path class="st63" d="M-213,169h-2c0,0,0-0.5,0-1s0-1,0-1h2c0,0,0,0.5,0,1S-213,169-213,169z"/>
			</g>
			<g>
				<path class="st63" d="M-209,169h-2c0,0,0-0.5,0-1s0-1,0-1h2c0,0,0,0.5,0,1S-209,169-209,169z"/>
			</g>
		</g>
	</g>
</g>
<g>
	<g class="st43">
		<path class="st1" d="M-167,170h-2c0,0,0-0.5,0-1s0-1,0-1h2c0,0,0,0.5,0,1S-167,170-167,170z"/>
		<path class="st1" d="M-163,170h-2c0,0,0-0.5,0-1s0-1,0-1h2c0,0,0,0.5,0,1S-163,170-163,170z"/>
		<path class="st1" d="M-159,170h-2c0,0,0-0.5,0-1s0-1,0-1h2c0,0,0,0.5,0,1S-159,170-159,170z"/>
	</g>
	<g>
		<g>
			<g>
				<path class="st64" d="M-167,169h-2c0,0,0-0.5,0-1s0-1,0-1h2c0,0,0,0.5,0,1S-167,169-167,169z"/>
			</g>
			<g>
				<path class="st64" d="M-163,169h-2c0,0,0-0.5,0-1s0-1,0-1h2c0,0,0,0.5,0,1S-163,169-163,169z"/>
			</g>
			<g>
				<path class="st64" d="M-159,169h-2c0,0,0-0.5,0-1s0-1,0-1h2c0,0,0,0.5,0,1S-159,169-159,169z"/>
			</g>
		</g>
	</g>
</g>
<g>
	<g class="st43">
		<path class="st1" d="M-117,170h-2c0,0,0-0.5,0-1s0-1,0-1h2c0,0,0,0.5,0,1S-117,170-117,170z"/>
		<path class="st1" d="M-113,170h-2c0,0,0-0.5,0-1s0-1,0-1h2c0,0,0,0.5,0,1S-113,170-113,170z"/>
		<path class="st1" d="M-109,170h-2c0,0,0-0.5,0-1s0-1,0-1h2c0,0,0,0.5,0,1S-109,170-109,170z"/>
	</g>
	<g>
		<g>
			<g>
				<path class="st64" d="M-117,169h-2c0,0,0-0.5,0-1s0-1,0-1h2c0,0,0,0.5,0,1S-117,169-117,169z"/>
			</g>
			<g>
				<path class="st64" d="M-113,169h-2c0,0,0-0.5,0-1s0-1,0-1h2c0,0,0,0.5,0,1S-113,169-113,169z"/>
			</g>
			<g>
				<path class="st64" d="M-109,169h-2c0,0,0-0.5,0-1s0-1,0-1h2c0,0,0,0.5,0,1S-109,169-109,169z"/>
			</g>
		</g>
	</g>
</g>
<g>
	<g class="st43">
		<polygon class="st1" points="-266.8,206 -260.2,206 -263.5,209 		"/>
	</g>
	<g>
		<polygon class="st65" points="-266.8,205 -260.2,205 -263.5,208 		"/>
	</g>
</g>
<g>
	<g class="st43">
		<polygon class="st1" points="-217.2,206 -210.8,206 -214,209 		"/>
	</g>
	<g>
		<polygon class="st66" points="-217.2,205 -210.8,205 -214,208 		"/>
	</g>
</g>
<g>
	<g class="st43">
		<path class="st1" d="M-269.5,241.5v2.9v0.1v8h0.5h0.5h1h1h1h1h1h1h1h1h0.9h0.4h0.6v-8v-0.1v-2.9H-269.5z M-268.5,246.5h1v1h-1
			V246.5z M-264.5,245.5v-1h1v1H-264.5z M-263.4,246.5v1h-1v-1H-263.4z M-265.5,245.5h-1v-1h1V245.5z M-265.5,246.5v1h-1v-1H-265.5z
			 M-268.5,248.5h1v1h-1V248.5z M-266.5,248.5h1v1h-1V248.5z M-264.5,248.5h1v1h-1V248.5z M-262.4,248.5h1v1h-1V248.5z
			 M-260.4,248.5h0.9v1h-0.9V248.5z M-260.4,247.5v-1h0.9v1H-260.4z M-261.4,247.5h-1v-1h1V247.5z M-262.4,245.5v-1h1v1H-262.4z
			 M-267.5,244.5v1h-1v-1H-267.5z M-268.5,251.5v-1h1v1H-268.5z M-266.5,251.5v-1h1v1H-266.5z M-264.5,251.5v-1h1v1H-264.5z
			 M-262.4,251.5v-1h1v1H-262.4z M-260.4,251.5v-1h0.9v1H-260.4z M-259.5,245.5h-0.9v-1h0.9V245.5z"/>
	</g>
	<g>
		<path class="st67" d="M-269.5,240.5v2.9v0.1v8h0.5h0.5h1h1h1h1h1h1h1h1h0.9h0.4h0.6v-8v-0.1v-2.9H-269.5z M-268.5,245.5h1v1h-1
			V245.5z M-264.5,244.5v-1h1v1H-264.5z M-263.4,245.5v1h-1v-1H-263.4z M-265.5,244.5h-1v-1h1V244.5z M-265.5,245.5v1h-1v-1H-265.5z
			 M-268.5,247.5h1v1h-1V247.5z M-266.5,247.5h1v1h-1V247.5z M-264.5,247.5h1v1h-1V247.5z M-262.4,247.5h1v1h-1V247.5z
			 M-260.4,247.5h0.9v1h-0.9V247.5z M-260.4,246.5v-1h0.9v1H-260.4z M-261.4,246.5h-1v-1h1V246.5z M-262.4,244.5v-1h1v1H-262.4z
			 M-267.5,243.5v1h-1v-1H-267.5z M-268.5,250.5v-1h1v1H-268.5z M-266.5,250.5v-1h1v1H-266.5z M-264.5,250.5v-1h1v1H-264.5z
			 M-262.4,250.5v-1h1v1H-262.4z M-260.4,250.5v-1h0.9v1H-260.4z M-259.5,244.5h-0.9v-1h0.9V244.5z"/>
	</g>
</g>
<g>
	<g class="st43">
		<path class="st1" d="M-169.5,241.5v2.9v0.1v8h0.4h0.6h1h1h1h1h1h1h1h1h0.9h0.4h0.6v-8v-0.1v-2.9H-169.5z M-168.5,246.5h1v1h-1
			V246.5z M-164.5,245.5v-1h1v1H-164.5z M-163.4,246.5v1h-1v-1H-163.4z M-165.5,245.5h-1v-1h1V245.5z M-165.5,246.5v1h-1v-1H-165.5z
			 M-168.5,248.5h1v1h-1V248.5z M-166.5,248.5h1v1h-1V248.5z M-164.5,248.5h1v1h-1V248.5z M-162.4,248.5h1v1h-1V248.5z
			 M-160.4,248.5h0.9v1h-0.9V248.5z M-160.4,247.5v-1h0.9v1H-160.4z M-161.4,247.5h-1v-1h1V247.5z M-162.4,245.5v-1h1v1H-162.4z
			 M-167.5,244.5v1h-1v-1H-167.5z M-168.5,251.5v-1h1v1H-168.5z M-166.5,251.5v-1h1v1H-166.5z M-164.5,251.5v-1h1v1H-164.5z
			 M-162.4,251.5v-1h1v1H-162.4z M-160.4,251.5v-1h0.9v1H-160.4z M-159.5,245.5h-0.9v-1h0.9V245.5z"/>
	</g>
	<g>
		<path class="st68" d="M-169.5,240.5v2.9v0.1v8h0.4h0.6h1h1h1h1h1h1h1h1h0.9h0.4h0.6v-8v-0.1v-2.9H-169.5z M-168.5,245.5h1v1h-1
			V245.5z M-164.5,244.5v-1h1v1H-164.5z M-163.4,245.5v1h-1v-1H-163.4z M-165.5,244.5h-1v-1h1V244.5z M-165.5,245.5v1h-1v-1H-165.5z
			 M-168.5,247.5h1v1h-1V247.5z M-166.5,247.5h1v1h-1V247.5z M-164.5,247.5h1v1h-1V247.5z M-162.4,247.5h1v1h-1V247.5z
			 M-160.4,247.5h0.9v1h-0.9V247.5z M-160.4,246.5v-1h0.9v1H-160.4z M-161.4,246.5h-1v-1h1V246.5z M-162.4,244.5v-1h1v1H-162.4z
			 M-167.5,243.5v1h-1v-1H-167.5z M-168.5,250.5v-1h1v1H-168.5z M-166.5,250.5v-1h1v1H-166.5z M-164.5,250.5v-1h1v1H-164.5z
			 M-162.4,250.5v-1h1v1H-162.4z M-160.4,250.5v-1h0.9v1H-160.4z M-159.5,244.5h-0.9v-1h0.9V244.5z"/>
	</g>
</g>
<linearGradient id="SVGID_38_" gradientUnits="userSpaceOnUse" x1="-264" y1="333.5" x2="-264" y2="318.5">
	<stop  offset="0" style="stop-color:#FFFFFF"/>
	<stop  offset="0.5586" style="stop-color:#FDFDFD;stop-opacity:0.609"/>
	<stop  offset="0.7598" style="stop-color:#F6F6F6;stop-opacity:0.4682"/>
	<stop  offset="0.9027" style="stop-color:#EBEBEB;stop-opacity:0.3681"/>
	<stop  offset="1" style="stop-color:#DDDDDD;stop-opacity:0.3"/>
</linearGradient>
<rect x="-271.5" y="318.5" class="st69" width="15" height="15"/>
<linearGradient id="SVGID_39_" gradientUnits="userSpaceOnUse" x1="-264" y1="293.5" x2="-264" y2="278.5">
	<stop  offset="0" style="stop-color:#FFFFFF"/>
	<stop  offset="0.5586" style="stop-color:#FDFDFD;stop-opacity:0.609"/>
	<stop  offset="0.7598" style="stop-color:#F6F6F6;stop-opacity:0.4682"/>
	<stop  offset="0.9027" style="stop-color:#EBEBEB;stop-opacity:0.3681"/>
	<stop  offset="1" style="stop-color:#DDDDDD;stop-opacity:0.3"/>
</linearGradient>
<rect x="-271.5" y="278.5" class="st70" width="15" height="15"/>
<g>
	<g>
		<polygon class="st71" points="-258,283.1 -266,290.6 -266.1,290.6 -267.7,288.9 -270,286.4 -268.3,284.8 -265.9,287.3 
			-259.6,281.4 		"/>
	</g>
</g>
<g>
	<g>
		<polygon class="st48" points="-108,283.1 -116,290.6 -116.1,290.6 -117.7,288.9 -120,286.4 -118.3,284.8 -115.9,287.3 
			-109.6,281.4 		"/>
	</g>
</g>
<g>
	<path class="st1" d="M-264,574c-4.4,0-8-3.6-8-8s3.6-8,8-8s8,3.6,8,8S-259.6,574-264,574z"/>
	<path class="st72" d="M-264,559c3.9,0,7,3.1,7,7s-3.1,7-7,7s-7-3.1-7-7S-267.9,559-264,559 M-264,557c-5,0-9,4-9,9s4,9,9,9
		c5,0,9-4,9-9S-259,557-264,557L-264,557z"/>
</g>
<g>
	<path class="st1" d="M-264,614c-4.4,0-8-3.6-8-8s3.6-8,8-8s8,3.6,8,8S-259.6,614-264,614z"/>
	<path class="st72" d="M-264,599c3.9,0,7,3.1,7,7s-3.1,7-7,7s-7-3.1-7-7S-267.9,599-264,599 M-264,597c-5,0-9,4-9,9s4,9,9,9
		c5,0,9-4,9-9S-259,597-264,597L-264,597z"/>
</g>
<g>
	<path class="st73" d="M-114,614.5c-4.7,0-8.5-3.8-8.5-8.5s3.8-8.5,8.5-8.5s8.5,3.8,8.5,8.5S-109.3,614.5-114,614.5z"/>
	<path class="st72" d="M-114,598c4.4,0,8,3.6,8,8s-3.6,8-8,8s-8-3.6-8-8S-118.4,598-114,598 M-114,597c-5,0-9,4-9,9s4,9,9,9
		c5,0,9-4,9-9S-109,597-114,597L-114,597z"/>
</g>
<circle class="st66" cx="-264" cy="566" r="4"/>
<g>
	<path class="st73" d="M-114,574.5c-4.7,0-8.5-3.8-8.5-8.5s3.8-8.5,8.5-8.5s8.5,3.8,8.5,8.5S-109.3,574.5-114,574.5z"/>
	<path class="st72" d="M-114,558c4.4,0,8,3.6,8,8s-3.6,8-8,8s-8-3.6-8-8S-118.4,558-114,558 M-114,557c-5,0-9,4-9,9s4,9,9,9
		c5,0,9-4,9-9S-109,557-114,557L-114,557z"/>
</g>
<circle class="st74" cx="-114" cy="566" r="4"/>
<g>
	<path class="st1" d="M-203.2,851.3c0,0.4-0.3,0.7-0.7,0.7c-0.4,0-0.7-0.3-0.7-0.7c0-0.4,0.3-0.7,0.7-0.7
		C-203.6,850.6-203.2,850.9-203.2,851.3z M-204.6,851.3c0,0.3,0.2,0.6,0.6,0.6c0.3,0,0.6-0.3,0.6-0.6c0-0.3-0.2-0.6-0.6-0.6
		C-204.3,850.7-204.6,851-204.6,851.3z M-204.1,851.7h-0.2v-0.7c0.1,0,0.2,0,0.3,0c0.1,0,0.2,0,0.3,0.1c0,0,0.1,0.1,0.1,0.2
		c0,0.1-0.1,0.1-0.2,0.2v0c0.1,0,0.1,0.1,0.1,0.2c0,0.1,0,0.2,0.1,0.2h-0.2c0,0,0-0.1-0.1-0.2c0-0.1-0.1-0.1-0.2-0.1h-0.1V851.7z
		 M-204.1,851.2L-204.1,851.2c0.2,0,0.2,0,0.2-0.1c0-0.1,0-0.1-0.2-0.1c0,0-0.1,0-0.1,0V851.2z"/>
	<path class="st1" d="M-249.4,848.1h-5.9c0,0.8,0.3,1.6,0.8,2.1c0.4,0.4,0.9,0.6,1.5,0.6c0.7,0,1.2-0.2,1.5-0.5
		c0.2-0.2,0.4-0.5,0.5-0.9h1.4c-0.1,0.8-0.6,1.6-1.3,2c-0.6,0.4-1.3,0.6-2.1,0.6c-1.2,0-2.1-0.5-2.7-1.2c-0.7-0.8-1-1.9-1-3.1
		c0-1,0.2-1.9,0.6-2.7c0.6-1,1.7-1.7,3.1-1.7c1.1,0,1.9,0.4,2.5,1.1c0.7,0.7,1.1,1.8,1,2.9L-249.4,848.1z M-251.4,845.2
		c-0.3-0.5-0.9-0.8-1.6-0.8c-1.5,0-2.2,1.2-2.3,2.4h4.4C-250.8,846.3-251,845.7-251.4,845.2z M-235.4,851.8l-0.1-1.3
		c-0.4,0.9-1.5,1.5-2.5,1.5c-1.9,0-2.8-1.1-2.8-3v-5.4h1.4v5.2c0,1.2,0.5,2,1.8,2c0.6,0,1-0.2,1.4-0.6c0.5-0.5,0.7-1.4,0.7-2.3v-4.3
		h1.4v8.3H-235.4z M-226.6,851.1c-0.6,0.6-1.4,0.9-2.4,0.9c-1.5,0-2.4-0.7-3-1.6c-0.4-0.7-0.7-1.6-0.7-2.8c0-1.2,0.2-2.1,0.7-2.8
		c0.6-0.9,1.5-1.6,3-1.6c1,0,1.8,0.3,2.4,0.9c0.6,0.5,0.9,1.2,1,2.1h-1.4c-0.1-0.6-0.3-1-0.6-1.3c-0.3-0.3-0.8-0.5-1.3-0.5
		c-0.6,0-1.1,0.2-1.4,0.5c-0.7,0.6-0.8,1.6-0.8,2.6c0,1,0.2,2,0.8,2.6c0.4,0.3,0.8,0.5,1.4,0.5c0.6,0,1.1-0.2,1.4-0.6
		c0.3-0.3,0.5-0.7,0.6-1.2h1.4C-225.7,849.9-226,850.6-226.6,851.1z M-224.2,842.3v-1.4h1.5v1.4H-224.2z M-224.1,851.8v-8.3h1.4v8.3
		H-224.1z M-214.6,851.9c-0.7,0-1.2-0.6-1.2-1.3h0c-0.5,0.8-1.5,1.4-2.7,1.4c-1.9,0-2.8-1.3-2.8-2.6c0-1.1,0.7-2.5,2.9-2.6l2.5-0.1
		v-0.6c0-0.4,0-0.9-0.4-1.3c-0.3-0.3-0.7-0.4-1.4-0.4c-0.8,0-1.2,0.2-1.5,0.5c-0.3,0.3-0.4,0.6-0.4,1h-1.4c0-0.8,0.3-1.3,0.7-1.7
		c0.6-0.6,1.5-0.9,2.6-0.9c1.6,0,2.5,0.7,2.9,1.6c0.2,0.4,0.2,0.8,0.2,1.3v4c0,0.4,0.2,0.6,0.5,0.6c0.1,0,0.4,0,0.4,0v1
		C-213.9,851.9-214.2,851.9-214.6,851.9z M-215.8,847.8l-2.2,0.1c-0.8,0-1.8,0.4-1.8,1.5c0,0.7,0.5,1.4,1.6,1.4
		c0.6,0,1.3-0.2,1.7-0.7c0.5-0.5,0.7-1.2,0.7-1.9V847.8z M-207,851.8v-5.3c0-1.2-0.5-2-1.8-2c-0.8,0-1.4,0.5-1.8,1.3
		c-0.3,0.6-0.3,1.5-0.3,2.1v3.8h-1.4v-8.3h1.2l0.1,1.2c0.4-0.9,1.6-1.5,2.5-1.5c1.9,0,2.9,1.1,2.9,3v5.4H-207z M-246.5,851.8V840
		h-1.4v11.8H-246.5z M-242.7,851.8V840h-1.4v11.8H-242.7z"/>
</g>
<polygon class="st66" points="-268,804 -260,804 -264,808 "/>
<polygon class="st66" points="-246,810 -246,802 -242,806 "/>
<path class="st1" d="M-671.4,86l5.8-5.8c0.2-0.2,0.2-0.5,0-0.7l-1.8-1.8c-0.2-0.2-0.5-0.2-0.7,0l-5.8,5.8l-5.8-5.8
	c-0.2-0.2-0.5-0.2-0.7,0l-1.8,1.8c-0.2,0.2-0.2,0.5,0,0.7l5.8,5.8l-5.8,5.8c-0.2,0.2-0.2,0.5,0,0.7l1.8,1.8c0.2,0.2,0.5,0.2,0.7,0
	l5.8-5.8l5.8,5.8c0.2,0.2,0.5,0.2,0.7,0l1.8-1.8c0.2-0.2,0.2-0.5,0-0.7L-671.4,86z"/>
<path class="st3" d="M-621.4,86l5.8-5.8c0.2-0.2,0.2-0.5,0-0.7l-1.8-1.8c-0.2-0.2-0.5-0.2-0.7,0l-5.8,5.8l-5.8-5.8
	c-0.2-0.2-0.5-0.2-0.7,0l-1.8,1.8c-0.2,0.2-0.2,0.5,0,0.7l5.8,5.8l-5.8,5.8c-0.2,0.2-0.2,0.5,0,0.7l1.8,1.8c0.2,0.2,0.5,0.2,0.7,0
	l5.8-5.8l5.8,5.8c0.2,0.2,0.5,0.2,0.7,0l1.8-1.8c0.2-0.2,0.2-0.5,0-0.7L-621.4,86z"/>
<path class="st1" d="M27.6,25l5.8-5.8c0.2-0.2,0.2-0.5,0-0.7l-1.8-1.8c-0.2-0.2-0.5-0.2-0.7,0L25,22.4l-5.8-5.8
	c-0.2-0.2-0.5-0.2-0.7,0l-1.8,1.8c-0.2,0.2-0.2,0.5,0,0.7l5.8,5.8l-5.8,5.8c-0.2,0.2-0.2,0.5,0,0.7l1.8,1.8c0.2,0.2,0.5,0.2,0.7,0
	l5.8-5.8l5.8,5.8c0.2,0.2,0.5,0.2,0.7,0l1.8-1.8c0.2-0.2,0.2-0.5,0-0.7L27.6,25z"/>
<g id="college_icon_3_" transform="translate(288 32)">
	<path class="st1" d="M-174,1V0h-1v-7h1v-1h-4v1h1v7h-3v-7h1v-1h-3v1h1v7h-4v-7h1v-1h-3v1h1v7h-3v-7h1v-1h-4v1h1v7h-1v1h-1v2h20V1
		H-174z"/>
	<path class="st1" d="M-183.6-16h1.2l9.4,4.9V-9h-20v-2.1L-183.6-16z"/>
</g>
<path class="st34" d="M188.5,17H178v16h13V21L188.5,17z M191,29h-4v3h-2v-3h-3v-2h3v-3h2v3h4V29z M190.5,21h-3l0-3L190.5,21z"/>
<g>
	<g>
		<defs>
			<path id="SVGID_40_" d="M264.8,25h5.2v-4.2l-2.4-3.8H259v9h3.8L264.8,25z M266,18.3l3.6,2.7H266V18.3z M260,19h4v1h-4V19z
				 M260,21h5v1h-5V21z M260,23h7v1h-7V23z"/>
		</defs>
		<clipPath id="SVGID_41_">
			<use xlink:href="#SVGID_40_"  style="overflow:visible;"/>
		</clipPath>
		<rect x="254" y="12" class="st75" width="21" height="19"/>
	</g>
	<g>
		<defs>
			<polyline id="SVGID_42_" points="270,26 264.8,26 262.8,27 258,27 258,33 271,33 271,26 270,26 			"/>
		</defs>
		<clipPath id="SVGID_43_">
			<use xlink:href="#SVGID_42_"  style="overflow:visible;"/>
		</clipPath>
		<rect x="253" y="21" class="st76" width="23" height="17"/>
	</g>
</g>
<path class="st1" d="M30,107v-2v-1h-4v-1h3v-1v-5h-6h-1v6h3v1h-5v1v2h-2h-1v6h7v-1v-5h-3v-2h8v2h-2h-1v6h7v-1v-5H30z M23,108v1h-5
	v-1H23z M23,99v-1h5v1H23z M32,109h-5v-1h5V109z"/>
<g>
	<g class="st43">
		<path class="st1" d="M189.7,99h-9.3c-1.3,0-2.3,1.1-2.3,2.3v9.3c0,1.3,1.1,2.3,2.3,2.3h9.3c1.3,0,2.3-1.1,2.3-2.3v-9.3
			C192,100.1,191,99,189.7,99z M190.4,107.2h-4.2v2.9h0v1.2l-2.3,0v-4.2l-4.2,0v-2.3h1.3v0h2.9v-4.2h2.3v1.2h0v2.9h2.9v0h1.3V107.2z
			"/>
	</g>
	<g>
		<path class="st44" d="M189.7,98h-9.3c-1.3,0-2.3,1.1-2.3,2.3v9.3c0,1.3,1.1,2.3,2.3,2.3h9.3c1.3,0,2.3-1.1,2.3-2.3v-9.3
			C192,99.1,191,98,189.7,98z M190.4,106.2h-4.2v2.9h0v1.2l-2.3,0v-4.2l-4.2,0v-2.3h1.3v0h2.9v-4.2h2.3v1.2h0v2.9h2.9v0h1.3V106.2z"
			/>
	</g>
</g>
<g>
	<g class="st43">
		<path class="st1" d="M270.2,99h-9.3c-1.3,0-2.8,1-2.8,2.3v9.3c0,1.3,1.6,2.4,2.8,2.4h9.3c1.3,0,1.8-1.1,1.8-2.4v-9.3
			C272,100,271.5,99,270.2,99z M264.4,107H261v-2h3.4h2.3h2.3v2h-2.3H264.4z"/>
	</g>
	<g>
		<g>
			<path class="st44" d="M270.2,98h-9.3c-1.3,0-2.8,1-2.8,2.3v9.3c0,1.3,1.6,2.4,2.8,2.4h9.3c1.3,0,1.8-1.1,1.8-2.4v-9.3
				C272,99,271.5,98,270.2,98z M264.4,106H261v-2h3.4h2.3h2.3v2h-2.3H264.4z"/>
		</g>
	</g>
</g>
<g>
	<g class="st43">
		<path class="st1" d="M33,192c0,0.6-0.4,1-1,1h-7c-0.6,0-1-0.4-1-1v-7c0-0.6,0.4-1,1-1h7c0.6,0,1,0.4,1,1V192z"/>
		<path class="st1" d="M20.7,188c0.6,0,1.3-0.8,1.3-1.4v-2.6c0-0.6,0.1-1.1,0.7-1.1h2.7c0.6,0,0.7-0.4,0.7-0.9v-2.6
			c0-0.6-0.1-0.5-0.7-0.5H18c-0.6,0-1-0.1-1,0.5v7.1c0,0.6,0.4,1.4,1,1.4H20.7z"/>
	</g>
	<g>
		<g>
			<g>
				<path class="st44" d="M33,191c0,0.6-0.4,1-1,1h-7c-0.6,0-1-0.4-1-1v-7c0-0.6,0.4-1,1-1h7c0.6,0,1,0.4,1,1V191z"/>
			</g>
			<g>
				<path class="st44" d="M20.7,187c0.6,0,1.3-0.8,1.3-1.4v-2.6c0-0.6,0.1-1.1,0.7-1.1h2.7c0.6,0,0.7-0.4,0.7-0.9v-2.6
					c0-0.6-0.1-0.5-0.7-0.5H18c-0.6,0-1-0.1-1,0.5v7.1c0,0.6,0.4,1.4,1,1.4H20.7z"/>
			</g>
		</g>
	</g>
</g>
<g>
	<g>
		<g class="st0">
			<path class="st1" d="M111,182.9c-0.5-0.7-4.6-4.1-4.6-4.1s0.1-0.3-0.9-0.3s-5,0-5,0c-1,0-2,1-2,2l0,10.9c0,1,1,2.1,2,2.1h9
				c1,0,2-1,2-2.1c0,0,0-6.3,0-6.9C111.5,183.5,111.5,183.5,111,182.9z M109.5,188.5h-9v-1h9L109.5,188.5z M109.5,190.5h-9v-1h9
				L109.5,190.5z M109.5,186.5h-9v-1h9V186.5z M110,184.5c-0.4,0-2.2,0-2.9,0c-1.8,0-1.8,0.1-1.8-1.7c0-0.5,0-2.5,0-2.8
				c0-0.3,0.3-0.5,0.8,0c0.5,0.5,3.3,2.8,4,3.5C110.6,184.1,110.3,184.5,110,184.5z"/>
		</g>
		<g>
			<path class="st44" d="M111,181.9c-0.5-0.7-4.6-4.1-4.6-4.1s0.1-0.3-0.9-0.3s-5,0-5,0c-1,0-2,1-2,2l0,10.9c0,1,1,2.1,2,2.1h9
				c1,0,2-1,2-2.1c0,0,0-6.3,0-6.9C111.5,182.5,111.5,182.5,111,181.9z M109.5,187.5h-9v-1h9L109.5,187.5z M109.5,189.5h-9v-1h9
				L109.5,189.5z M109.5,185.5h-9v-1h9V185.5z M110,183.5c-0.4,0-2.2,0-2.9,0c-1.8,0-1.8,0.1-1.8-1.7c0-0.5,0-2.5,0-2.8
				c0-0.3,0.3-0.5,0.8,0c0.5,0.5,3.3,2.8,4,3.5C110.6,183.1,110.3,183.5,110,183.5z"/>
		</g>
	</g>
</g>
<g>
	<g class="st43">
		<path class="st1" d="M191.2,180.3c0-1.3-3.1-2.2-7-2.2s-7,0.9-7,2.1c0,0.2,0,0.2,0,0.2c0.2,0.2,0.3,0.3,0.3,0.3
			c0,0,0.3,0.3,0.7,0.7l3.7,4.2c0.4,0.4,0.7,1.2,0.7,1.7v2.2c0,0.6,0.4,1.2,0.9,1.4l1.2,0.6c0.5,0.2,0.9,0,0.9-0.6v-3.4
			c0-0.6,0.3-1.3,0.7-1.7l4.1-4.5c0.4-0.4,0.7-0.7,0.7-0.7c0,0,0.1-0.1,0.2-0.2C191.2,180.5,191.2,180.5,191.2,180.3z M184.2,181.6
			c-3,0-5.5-0.5-5.5-1.2c0-0.7,2.4-1.2,5.5-1.2c3,0,5.5,0.5,5.5,1.2C189.7,181.1,187.3,181.6,184.2,181.6z"/>
		<polygon class="st1" points="187.8,191 192.8,191 190.2,194 		"/>
	</g>
	<g>
		<g>
			<g>
				<g>
					<path class="st44" d="M191.2,179.3c0-1.3-3.1-2.2-7-2.2s-7,0.9-7,2.1c0,0.2,0,0.2,0,0.2c0.2,0.2,0.3,0.3,0.3,0.3
						c0,0,0.3,0.3,0.7,0.7l3.7,4.2c0.4,0.4,0.7,1.2,0.7,1.7v2.2c0,0.6,0.4,1.2,0.9,1.4l1.2,0.6c0.5,0.2,0.9,0,0.9-0.6v-3.4
						c0-0.6,0.3-1.3,0.7-1.7l4.1-4.5c0.4-0.4,0.7-0.7,0.7-0.7c0,0,0.1-0.1,0.2-0.2C191.2,179.5,191.2,179.5,191.2,179.3z
						 M184.2,180.6c-3,0-5.5-0.5-5.5-1.2c0-0.7,2.4-1.2,5.5-1.2c3,0,5.5,0.5,5.5,1.2C189.7,180.1,187.3,180.6,184.2,180.6z"/>
				</g>
			</g>
			<polygon class="st44" points="187.8,190 192.8,190 190.2,193 			"/>
		</g>
	</g>
</g>
<g>
	<g>
		<g class="st0">
			<path class="st1" d="M265,179c-3.9,0-7,3.1-7,7s3.1,7,7,7c3.9,0,7-3.1,7-7S268.9,179,265,179z M269.6,189l-1.7,1.7l-3-3l-3,3
				l-1.7-1.7l3-3l-3-3l1.7-1.7l3,3l3-3l1.7,1.7l-3,3L269.6,189z"/>
		</g>
		<g>
			<path class="st2" d="M265,178c-3.9,0-7,3.1-7,7s3.1,7,7,7c3.9,0,7-3.1,7-7S268.9,178,265,178z M269.6,188l-1.7,1.7l-3-3l-3,3
				l-1.7-1.7l3-3l-3-3l1.7-1.7l3,3l3-3l1.7,1.7l-3,3L269.6,188z"/>
		</g>
	</g>
</g>
<path class="st1" d="M-264,84.2l-2.9-2.9c-0.5-0.5-1.3-0.5-1.8,0c-0.5,0.5-0.5,1.3,0,1.8l2.9,2.9l-2.9,2.9c-0.5,0.5-0.5,1.3,0,1.8
	c0.5,0.5,1.3,0.5,1.8,0l2.9-2.9l2.9,2.9c0.5,0.5,1.3,0.5,1.8,0c0.5-0.5,0.5-1.3,0-1.8l-2.9-2.9l2.9-2.9c0.5-0.5,0.5-1.3,0-1.8
	c-0.5-0.5-1.3-0.5-1.8,0L-264,84.2z"/>
<use xlink:href="#remove"  width="13" height="14.2" id="XMLID_1_" x="-6.5" y="-7.2" transform="matrix(1 0 0 -1 25 265)" style="overflow:visible;"/>
<g>
	<polygon class="st49" points="100.5,269 105,264.5 109.5,269 	"/>
	<line class="st50" x1="109" y1="261.5" x2="101" y2="261.5"/>
</g>
<g>
	<polygon class="st49" points="189.5,261 185,265.5 180.5,261 	"/>
	<line class="st50" x1="181" y1="268.5" x2="189" y2="268.5"/>
</g>
<polygon class="st49" points="267.3,263 262.7,258.5 260.8,260.5 265.3,265 260.8,269.5 262.7,271.5 269.2,265 "/>
<g>
	<g>
		<path class="st31" d="M33.1,351.5c0.5,0.5,0.5,1.2,0,1.7c-0.5,0.5-1.2,0.5-1.7,0l-3.7-3.7c-2.5,1.8-5.8,1.8-8.3,0
			c-3.2-2.3-4-6.8-1.7-10c2.3-3.2,6.8-4,10-1.7c3.2,2.3,4,6.8,1.7,10L33.1,351.5L33.1,351.5z M28.8,343.7c0-2.8-2.3-5.1-5.1-5.1
			c-2.8,0-5.1,2.3-5.1,5.1c0,2.8,2.3,5.1,5.1,5.1C26.5,348.8,28.8,346.5,28.8,343.7L28.8,343.7z"/>
	</g>
</g>
<g>
	<circle class="st59" cx="105" cy="345" r="9.4"/>
	<path class="st34" d="M111,342.2c0-0.1-0.2-0.4-0.4-0.5l-0.3-0.4c-0.2-0.2-0.4-0.3-0.5-0.4c-0.1,0-0.5,0.2-0.7,0.4l-6.3,6.8
		c-0.2,0.2-0.4,0.2-0.6,0l-2.3-2.4c-0.2-0.2-0.4-0.3-0.5-0.4c-0.1,0-0.5,0.2-0.7,0.4l-0.3,0.4c-0.2,0.2-0.3,0.4-0.4,0.5
		c0,0.1,0.2,0.5,0.4,0.7l3.5,3.7c0.2,0.2,0.4,0.3,0.5,0.4c0.1,0,0.5-0.2,0.7-0.4l0.3-0.4c0.2-0.2,0.3-0.3,0.3-0.3
		c0,0,0.2-0.2,0.3-0.4l6.5-7C110.8,342.8,111,342.3,111,342.2"/>
</g>
<g>
	<path class="st58" d="M194.4,345c0,5.2-4.2,9.4-9.4,9.4c-5.2,0-9.4-4.2-9.4-9.4c0-5.2,4.2-9.4,9.4-9.4
		C190.2,335.6,194.4,339.8,194.4,345"/>
	<g>
		<path class="st34" d="M184.9,350c-1.2,0-1.3,0-1.3-0.9c0-1.5,0.1-1.5,1.3-1.5c1.2,0,1.3,0,1.3,1.5
			C186.2,349.9,186.1,350,184.9,350"/>
		<path class="st34" d="M186.3,346c-0.3,0.8-0.4,0.9-1.3,0.9c-0.9,0-1.1-0.1-1.3-0.9c0,0-0.9-4.2-0.9-4.3c0-1.7,0.9-1.7,1.7-1.7
			c0.2,0,0.7,0,0.8,0c0.9,0,1.8,0,1.8,1.7L186.3,346"/>
	</g>
</g>
<g>
	<path class="st60" d="M255.5,345c0-5.2,4.3-9.4,9.5-9.4s9.5,4.2,9.5,9.4c0,5.2-4.3,9.4-9.5,9.4S255.5,350.2,255.5,345"/>
	<path class="st34" d="M265,339.4c1.3,0,1.5,0,1.5,1c0,1.6-0.2,1.6-1.5,1.6c-1.3,0-1.5,0-1.5-1.6C263.5,339.6,263.7,339.4,265,339.4
		"/>
	<path class="st34" d="M263.5,344.1c0-0.6,0.4-1.1,1.5-1.1c1.1,0,1.5,0.5,1.5,1.1c0,0.6,0,2.6,0,4.5c0,2,0.3,2-1.4,2
		c-1.6,0-1.6,0-1.6-1.9C263.5,348.7,263.5,344.6,263.5,344.1"/>
</g>
<g>
	<path class="st61" d="M34.1,430.8l-7.7-13.4c-0.8-1.4-2-1.3-2.8,0.1l-7.7,13.3c-0.8,1.4-0.1,2.2,1.4,2.2h15.3
		C34.2,433,34.9,432.2,34.1,430.8"/>
	<path class="st34" d="M25,432.2c-1.1,0-1.2,0-1.2-0.9c0-1.4,0.1-1.4,1.2-1.4c1.1,0,1.3,0,1.3,1.4C26.2,432,26.1,432.2,25,432.2"/>
	<path class="st34" d="M26.3,427.3c-0.3,0.8-0.4,0.8-1.2,0.8s-1-0.1-1.2-0.8c0,0-0.8-4-0.8-4.1c0-1.7,0.8-1.7,1.6-1.6
		c0.1,0,0.6,0,0.8,0c0.8,0,1.7,0,1.6,1.7L26.3,427.3"/>
</g>
<path class="st1" d="M105,423.2l-2.9-2.9c-0.5-0.5-1.3-0.5-1.8,0c-0.5,0.5-0.5,1.3,0,1.8l2.9,2.9l-2.9,2.9c-0.5,0.5-0.5,1.3,0,1.8
	c0.5,0.5,1.3,0.5,1.8,0l2.9-2.9l2.9,2.9c0.5,0.5,1.3,0.5,1.8,0s0.5-1.3,0-1.8l-2.9-2.9l2.9-2.9c0.5-0.5,0.5-1.3,0-1.8
	c-0.5-0.5-1.3-0.5-1.8,0L105,423.2z"/>
<path class="st1" d="M-667.3,284.5h-2.1c-0.1-0.4-0.3-0.8-0.5-1.1l1.4-1.4c0.3-0.3,0.3-0.9,0-1.2l-0.6-0.6c-0.3-0.3-0.9-0.3-1.2,0
	l-1.4,1.4c-0.4-0.2-0.8-0.4-1.2-0.5v-1.8c0-0.5-0.4-0.8-0.8-0.8h-0.8c-0.5,0-0.8,0.4-0.8,0.8v1.8c-0.5,0.1-0.9,0.3-1.3,0.6l-1.2-1.2
	c-0.3-0.3-0.9-0.3-1.2,0l-0.6,0.6c-0.3,0.3-0.3,0.9,0,1.2l1.2,1.2c-0.3,0.4-0.4,0.9-0.6,1.4h-1.6c-0.5,0-0.8,0.4-0.8,0.8v0.8
	c0,0.5,0.4,0.8,0.8,0.8h1.7c0.2,0.5,0.4,1,0.7,1.4l-1.1,1.1c-0.3,0.3-0.3,0.9,0,1.2l0.6,0.6c0.3,0.3,0.9,0.3,1.2,0l1.3-1.3
	c0.4,0.2,0.9,0.4,1.4,0.4v1.7c0,0.5,0.4,0.8,0.8,0.8h0.8c0.5,0,0.8-0.4,0.8-0.8v-2c0.4-0.1,0.8-0.3,1.2-0.6l1.3,1.3
	c0.3,0.3,0.9,0.3,1.2,0l0.6-0.6c0.3-0.3,0.3-0.9,0-1.2l-1.5-1.5c0.2-0.4,0.3-0.8,0.4-1.2h2c0.5,0,0.8-0.4,0.8-0.8v-0.8
	C-666.5,284.9-666.9,284.5-667.3,284.5z M-674.2,288.1c-1.1,0-2.1-0.9-2.1-2.1c0-1.2,0.9-2.1,2.1-2.1c1.2,0,2.1,0.9,2.1,2.1
	C-672.1,287.2-673.1,288.1-674.2,288.1z"/>
<path class="st3" d="M-617.3,284.5h-2.1c-0.1-0.4-0.3-0.8-0.5-1.1l1.4-1.4c0.3-0.3,0.3-0.9,0-1.2l-0.6-0.6c-0.3-0.3-0.9-0.3-1.2,0
	l-1.4,1.4c-0.4-0.2-0.8-0.4-1.2-0.5v-1.8c0-0.5-0.4-0.8-0.8-0.8h-0.8c-0.5,0-0.8,0.4-0.8,0.8v1.8c-0.5,0.1-0.9,0.3-1.3,0.6l-1.2-1.2
	c-0.3-0.3-0.9-0.3-1.2,0l-0.6,0.6c-0.3,0.3-0.3,0.9,0,1.2l1.2,1.2c-0.3,0.4-0.4,0.9-0.6,1.4h-1.6c-0.5,0-0.8,0.4-0.8,0.8v0.8
	c0,0.5,0.4,0.8,0.8,0.8h1.7c0.2,0.5,0.4,1,0.7,1.4l-1.1,1.1c-0.3,0.3-0.3,0.9,0,1.2l0.6,0.6c0.3,0.3,0.9,0.3,1.2,0l1.3-1.3
	c0.4,0.2,0.9,0.4,1.4,0.4v1.7c0,0.5,0.4,0.8,0.8,0.8h0.8c0.5,0,0.8-0.4,0.8-0.8v-2c0.4-0.1,0.8-0.3,1.2-0.6l1.3,1.3
	c0.3,0.3,0.9,0.3,1.2,0l0.6-0.6c0.3-0.3,0.3-0.9,0-1.2l-1.5-1.5c0.2-0.4,0.3-0.8,0.4-1.2h2c0.5,0,0.8-0.4,0.8-0.8v-0.8
	C-616.5,284.9-616.9,284.5-617.3,284.5z M-624.2,288.1c-1.1,0-2.1-0.9-2.1-2.1c0-1.2,0.9-2.1,2.1-2.1c1.2,0,2.1,0.9,2.1,2.1
	C-622.1,287.2-623.1,288.1-624.2,288.1z"/>
<path class="st33" d="M-567.3,284.5h-2.1c-0.1-0.4-0.3-0.8-0.5-1.1l1.4-1.4c0.3-0.3,0.3-0.9,0-1.2l-0.6-0.6c-0.3-0.3-0.9-0.3-1.2,0
	l-1.4,1.4c-0.4-0.2-0.8-0.4-1.2-0.5v-1.8c0-0.5-0.4-0.8-0.8-0.8h-0.8c-0.5,0-0.8,0.4-0.8,0.8v1.8c-0.5,0.1-0.9,0.3-1.3,0.6l-1.2-1.2
	c-0.3-0.3-0.9-0.3-1.2,0l-0.6,0.6c-0.3,0.3-0.3,0.9,0,1.2l1.2,1.2c-0.3,0.4-0.4,0.9-0.6,1.4h-1.6c-0.5,0-0.8,0.4-0.8,0.8v0.8
	c0,0.5,0.4,0.8,0.8,0.8h1.7c0.2,0.5,0.4,1,0.7,1.4l-1.1,1.1c-0.3,0.3-0.3,0.9,0,1.2l0.6,0.6c0.3,0.3,0.9,0.3,1.2,0l1.3-1.3
	c0.4,0.2,0.9,0.4,1.4,0.4v1.7c0,0.5,0.4,0.8,0.8,0.8h0.8c0.5,0,0.8-0.4,0.8-0.8v-2c0.4-0.1,0.8-0.3,1.2-0.6l1.3,1.3
	c0.3,0.3,0.9,0.3,1.2,0l0.6-0.6c0.3-0.3,0.3-0.9,0-1.2l-1.5-1.5c0.2-0.4,0.3-0.8,0.4-1.2h2c0.5,0,0.8-0.4,0.8-0.8v-0.8
	C-566.5,284.9-566.9,284.5-567.3,284.5z M-574.2,288.1c-1.1,0-2.1-0.9-2.1-2.1c0-1.2,0.9-2.1,2.1-2.1c1.2,0,2.1,0.9,2.1,2.1
	C-572.1,287.2-573.1,288.1-574.2,288.1z"/>
<path class="st1" d="M111.7,103.5h-2.1c-0.1-0.4-0.3-0.8-0.5-1.1l1.4-1.4c0.3-0.3,0.3-0.9,0-1.2l-0.6-0.6c-0.3-0.3-0.9-0.3-1.2,0
	l-1.4,1.4c-0.4-0.2-0.8-0.4-1.2-0.5v-1.8c0-0.5-0.4-0.8-0.8-0.8h-0.8c-0.5,0-0.8,0.4-0.8,0.8v1.8c-0.5,0.1-0.9,0.3-1.3,0.6l-1.2-1.2
	c-0.3-0.3-0.9-0.3-1.2,0l-0.6,0.6c-0.3,0.3-0.3,0.9,0,1.2l1.2,1.2c-0.3,0.4-0.4,0.9-0.6,1.4h-1.6c-0.5,0-0.8,0.4-0.8,0.8v0.8
	c0,0.5,0.4,0.8,0.8,0.8h1.7c0.2,0.5,0.4,1,0.7,1.4l-1.1,1.1c-0.3,0.3-0.3,0.9,0,1.2l0.6,0.6c0.3,0.3,0.9,0.3,1.2,0l1.3-1.3
	c0.4,0.2,0.9,0.4,1.4,0.4v1.7c0,0.5,0.4,0.8,0.8,0.8h0.8c0.5,0,0.8-0.4,0.8-0.8v-2c0.4-0.1,0.8-0.3,1.2-0.6l1.3,1.3
	c0.3,0.3,0.9,0.3,1.2,0l0.6-0.6c0.3-0.3,0.3-0.9,0-1.2l-1.5-1.5c0.2-0.4,0.3-0.8,0.4-1.2h2c0.5,0,0.8-0.4,0.8-0.8v-0.8
	C112.5,103.9,112.1,103.5,111.7,103.5z M104.8,107.1c-1.1,0-2.1-0.9-2.1-2.1c0-1.2,0.9-2.1,2.1-2.1c1.2,0,2.1,0.9,2.1,2.1
	C106.9,106.2,105.9,107.1,104.8,107.1z"/>
<g>
	<g class="st43">
		<path class="st1" d="M190.9,421.6l-1-1c-0.6-0.6-1.5-0.6-2.1,0l-3.4,3.4c-0.6,0.6-0.6,1.5,0,2.1l1,1c0.6,0.6,1.5,0.6,2.1,0
			l3.4-3.4C191.5,423.2,191.5,422.2,190.9,421.6z"/>
		<path class="st1" d="M185.2,429.5l-1.5-1.5l-1.6-1.5l-0.1,1.6v0c0,0.9,0.8,1.5,1.6,1.5l0,0L185.2,429.5z"/>
		<path class="st1" d="M192,425v0.5v3.5c0,0.8-0.7,2-1.5,2h-11c-0.8,0-1.5-1.1-1.5-2v-2c0-0.8,0.7-1,1.5-1h2.5v-1h-3.5
			c-0.8,0-1.5,0.2-1.5,1v4c0,0.8,0.7,2,1.5,2h13c0.8,0,1.5-1.1,1.5-2v-5H192z"/>
	</g>
	<g>
		<g>
			<path class="st62" d="M190.9,420.6l-1-1c-0.6-0.6-1.5-0.6-2.1,0l-3.4,3.4c-0.6,0.6-0.6,1.5,0,2.1l1,1c0.6,0.6,1.5,0.6,2.1,0
				l3.4-3.4C191.5,422.2,191.5,421.2,190.9,420.6z"/>
			<path class="st62" d="M185.2,428.5l-1.5-1.5l-1.6-1.5l-0.1,1.6v0c0,0.9,0.8,1.5,1.6,1.5l0,0L185.2,428.5z"/>
			<path class="st62" d="M192,424v0.5v3.5c0,0.8-0.7,2-1.5,2h-11c-0.8,0-1.5-1.1-1.5-2v-2c0-0.8,0.7-1,1.5-1h2.5v-1h-3.5
				c-0.8,0-1.5,0.2-1.5,1v4c0,0.8,0.7,2,1.5,2h13c0.8,0,1.5-1.1,1.5-2v-5H192z"/>
		</g>
	</g>
</g>
<g>
	<g class="st43">
		<path class="st1" d="M262,430h-2c0,0,0-0.5,0-1s0-1,0-1h2c0,0,0,0.5,0,1S262,430,262,430z"/>
		<path class="st1" d="M266,430h-2c0,0,0-0.5,0-1s0-1,0-1h2c0,0,0,0.5,0,1S266,430,266,430z"/>
		<path class="st1" d="M270,430h-2c0,0,0-0.5,0-1s0-1,0-1h2c0,0,0,0.5,0,1S270,430,270,430z"/>
	</g>
	<g>
		<g>
			<g>
				<path class="st63" d="M262,429h-2c0,0,0-0.5,0-1s0-1,0-1h2c0,0,0,0.5,0,1S262,429,262,429z"/>
			</g>
			<g>
				<path class="st63" d="M266,429h-2c0,0,0-0.5,0-1s0-1,0-1h2c0,0,0,0.5,0,1S266,429,266,429z"/>
			</g>
			<g>
				<path class="st63" d="M270,429h-2c0,0,0-0.5,0-1s0-1,0-1h2c0,0,0,0.5,0,1S270,429,270,429z"/>
			</g>
		</g>
	</g>
</g>
<g>
	<g class="st43">
		<polygon class="st1" points="21.8,505 28.2,505 25,508 		"/>
	</g>
	<g>
		<polygon class="st65" points="21.8,504 28.2,504 25,507 		"/>
	</g>
</g>
<g>
	<g class="st43">
		<path class="st1" d="M99.5,500.5v2.9v0.1v8h0.4h0.6h1h1h1h1h1h1h1h1h0.9h0.4h0.6v-8v-0.1v-2.9H99.5z M100.5,505.5h1v1h-1V505.5z
			 M104.5,504.5v-1h1v1H104.5z M105.6,505.5v1h-1v-1H105.6z M103.5,504.5h-1v-1h1V504.5z M103.5,505.5v1h-1v-1H103.5z M100.5,507.5
			h1v1h-1V507.5z M102.5,507.5h1v1h-1V507.5z M104.5,507.5h1v1h-1V507.5z M106.6,507.5h1v1h-1V507.5z M108.6,507.5h0.9v1h-0.9V507.5
			z M108.6,506.5v-1h0.9v1H108.6z M107.6,506.5h-1v-1h1V506.5z M106.6,504.5v-1h1v1H106.6z M101.5,503.5v1h-1v-1H101.5z
			 M100.5,510.5v-1h1v1H100.5z M102.5,510.5v-1h1v1H102.5z M104.5,510.5v-1h1v1H104.5z M106.6,510.5v-1h1v1H106.6z M108.6,510.5v-1
			h0.9v1H108.6z M109.5,504.5h-0.9v-1h0.9V504.5z"/>
	</g>
	<g>
		<path class="st67" d="M99.5,499.5v2.9v0.1v8h0.4h0.6h1h1h1h1h1h1h1h1h0.9h0.4h0.6v-8v-0.1v-2.9H99.5z M100.5,504.5h1v1h-1V504.5z
			 M104.5,503.5v-1h1v1H104.5z M105.6,504.5v1h-1v-1H105.6z M103.5,503.5h-1v-1h1V503.5z M103.5,504.5v1h-1v-1H103.5z M100.5,506.5
			h1v1h-1V506.5z M102.5,506.5h1v1h-1V506.5z M104.5,506.5h1v1h-1V506.5z M106.6,506.5h1v1h-1V506.5z M108.6,506.5h0.9v1h-0.9V506.5
			z M108.6,505.5v-1h0.9v1H108.6z M107.6,505.5h-1v-1h1V505.5z M106.6,503.5v-1h1v1H106.6z M101.5,502.5v1h-1v-1H101.5z
			 M100.5,509.5v-1h1v1H100.5z M102.5,509.5v-1h1v1H102.5z M104.5,509.5v-1h1v1H104.5z M106.6,509.5v-1h1v1H106.6z M108.6,509.5v-1
			h0.9v1H108.6z M109.5,503.5h-0.9v-1h0.9V503.5z"/>
	</g>
</g>
<g>
	<g>
		<polygon class="st71" points="191,502.1 183,509.6 182.9,509.6 181.3,507.9 179,505.4 180.7,503.8 183.1,506.3 189.4,500.4 		"/>
	</g>
</g>
<path class="st53" d="M269.8,503.8h-3.5c-0.1,0-0.1-0.1-0.1-0.1v-3.5c0-0.1-0.1-0.1-0.1-0.1h-2.1c-0.1,0-0.1,0.1-0.1,0.1v3.5
	c0,0.1-0.1,0.1-0.1,0.1h-3.5c-0.1,0-0.1,0.1-0.1,0.1v2.1c0,0.1,0.1,0.1,0.1,0.1h3.5c0.1,0,0.1,0.1,0.1,0.1v3.5
	c0,0.1,0.1,0.1,0.1,0.1h2.1c0.1,0,0.1-0.1,0.1-0.1v-3.5c0-0.1,0.1-0.1,0.1-0.1h3.5c0.1,0,0.1-0.1,0.1-0.1v-2.1
	C270,503.9,269.9,503.8,269.8,503.8z"/>
<g>
	<g class="st0">
		<polygon class="st1" points="29,586 29,592 26,589 23,586 26,583 29,580 		"/>
	</g>
	<g>
		<polygon class="st3" points="29,585 29,591 26,588 23,585 26,582 29,579 		"/>
	</g>
</g>
<g>
	<g class="st0">
		<rect x="21" y="580" class="st1" width="2" height="12"/>
	</g>
	<g>
		<rect x="21" y="579" class="st3" width="2" height="12"/>
	</g>
</g>
<g>
	<g class="st43">
		<polygon class="st1" points="181,586 181,592 184.9,589 188.4,586 184.7,583 181,580 		"/>
	</g>
	<g>
		<polygon class="st3" points="181,585 181,591 184.9,588 188.4,585 184.7,582 181,579 		"/>
	</g>
</g>
<g>
	<g class="st43">
		<polygon class="st1" points="108,586 108,580 104.6,583 101.4,586 104.7,589 108,592 		"/>
	</g>
	<g>
		<polygon class="st3" points="108,585 108,579 104.6,582 101.4,585 104.7,588 108,591 		"/>
	</g>
</g>
<g>
	<g class="st43">
		<polygon class="st1" points="261,586 261,592 264.2,589 267,586 264,583 261,580 		"/>
	</g>
	<g>
		<polygon class="st3" points="261,585 261,591 264.2,588 267,585 264,582 261,579 		"/>
	</g>
</g>
<rect x="267" y="579" class="st3" width="2" height="12"/>
<circle class="st66" cx="25" cy="665" r="4"/>
<polygon class="st66" points="101,663 109,663 105,667 "/>
<g>
	<path class="st1" d="M251.8,670.3c0,0.4-0.3,0.7-0.7,0.7c-0.4,0-0.7-0.3-0.7-0.7c0-0.4,0.3-0.7,0.7-0.7
		C251.4,669.6,251.8,669.9,251.8,670.3z M250.4,670.3c0,0.3,0.2,0.6,0.6,0.6c0.3,0,0.6-0.3,0.6-0.6c0-0.3-0.2-0.6-0.6-0.6
		C250.7,669.7,250.4,670,250.4,670.3z M250.9,670.7h-0.2v-0.7c0.1,0,0.2,0,0.3,0c0.1,0,0.2,0,0.3,0.1c0,0,0.1,0.1,0.1,0.2
		c0,0.1-0.1,0.1-0.2,0.2v0c0.1,0,0.1,0.1,0.1,0.2c0,0.1,0,0.2,0.1,0.2h-0.2c0,0,0-0.1-0.1-0.2c0-0.1-0.1-0.1-0.2-0.1h-0.1V670.7z
		 M250.9,670.2L250.9,670.2c0.2,0,0.2,0,0.2-0.1c0-0.1,0-0.1-0.2-0.1c0,0-0.1,0-0.1,0V670.2z"/>
	<path class="st1" d="M205.6,667.1h-5.9c0,0.8,0.3,1.6,0.8,2.1c0.4,0.4,0.9,0.6,1.5,0.6c0.7,0,1.2-0.2,1.5-0.5
		c0.2-0.2,0.4-0.5,0.5-0.9h1.4c-0.1,0.8-0.6,1.6-1.3,2c-0.6,0.4-1.3,0.6-2.1,0.6c-1.2,0-2.1-0.5-2.7-1.2c-0.7-0.8-1-1.9-1-3.1
		c0-1,0.2-1.9,0.6-2.7c0.6-1,1.7-1.7,3.1-1.7c1.1,0,1.9,0.4,2.5,1.1c0.7,0.7,1.1,1.8,1,2.9L205.6,667.1z M203.6,664.2
		c-0.3-0.5-0.9-0.8-1.6-0.8c-1.5,0-2.2,1.2-2.3,2.4h4.4C204.2,665.3,204,664.7,203.6,664.2z M219.6,670.8l-0.1-1.3
		c-0.4,0.9-1.5,1.5-2.5,1.5c-1.9,0-2.8-1.1-2.8-3v-5.4h1.4v5.2c0,1.2,0.5,2,1.8,2c0.6,0,1-0.2,1.4-0.6c0.5-0.5,0.7-1.4,0.7-2.3v-4.3
		h1.4v8.3H219.6z M228.4,670.1c-0.6,0.6-1.4,0.9-2.4,0.9c-1.5,0-2.4-0.7-3-1.6c-0.4-0.7-0.7-1.6-0.7-2.8c0-1.2,0.2-2.1,0.7-2.8
		c0.6-0.9,1.5-1.6,3-1.6c1,0,1.8,0.3,2.4,0.9c0.6,0.5,0.9,1.2,1,2.1h-1.4c-0.1-0.6-0.3-1-0.6-1.3c-0.3-0.3-0.8-0.5-1.3-0.5
		c-0.6,0-1.1,0.2-1.4,0.5c-0.7,0.6-0.8,1.6-0.8,2.6c0,1,0.2,2,0.8,2.6c0.4,0.3,0.8,0.5,1.4,0.5c0.6,0,1.1-0.2,1.4-0.6
		c0.3-0.3,0.5-0.7,0.6-1.2h1.4C229.3,668.9,229,669.6,228.4,670.1z M230.8,661.3v-1.4h1.5v1.4H230.8z M230.9,670.8v-8.3h1.4v8.3
		H230.9z M240.4,670.9c-0.7,0-1.2-0.6-1.2-1.3h0c-0.5,0.8-1.5,1.4-2.7,1.4c-1.9,0-2.8-1.3-2.8-2.6c0-1.1,0.7-2.5,2.9-2.6l2.5-0.1
		v-0.6c0-0.4,0-0.9-0.4-1.3c-0.3-0.3-0.7-0.4-1.4-0.4c-0.8,0-1.2,0.2-1.5,0.5c-0.3,0.3-0.4,0.6-0.4,1h-1.4c0-0.8,0.3-1.3,0.7-1.7
		c0.6-0.6,1.5-0.9,2.6-0.9c1.6,0,2.5,0.7,2.9,1.6c0.2,0.4,0.2,0.8,0.2,1.3v4c0,0.4,0.2,0.6,0.5,0.6c0.1,0,0.4,0,0.4,0v1
		C241.1,670.9,240.8,670.9,240.4,670.9z M239.2,666.8l-2.2,0.1c-0.8,0-1.8,0.4-1.8,1.5c0,0.7,0.5,1.4,1.6,1.4c0.6,0,1.3-0.2,1.7-0.7
		c0.5-0.5,0.7-1.2,0.7-1.9V666.8z M248,670.8v-5.3c0-1.2-0.5-2-1.8-2c-0.8,0-1.4,0.5-1.8,1.3c-0.3,0.6-0.3,1.5-0.3,2.1v3.8h-1.4
		v-8.3h1.2l0.1,1.2c0.4-0.9,1.6-1.5,2.5-1.5c1.9,0,2.9,1.1,2.9,3v5.4H248z M208.5,670.8V659h-1.4v11.8H208.5z M212.3,670.8V659h-1.4
		v11.8H212.3z"/>
</g>
<rect id="_x3C_Slice_x3E_" x="-690" y="70" class="st77" width="200" height="32"/>
<rect id="_x3C_Slice_x3E__1_" x="-690" y="110" class="st77" width="200" height="32"/>
<rect id="_x3C_Slice_x3E__2_" x="-690" y="150" class="st77" width="200" height="32"/>
<rect id="_x3C_Slice_x3E__3_" x="-690" y="190" class="st77" width="200" height="32"/>
<rect id="_x3C_Slice_x3E__4_" x="-690" y="230" class="st77" width="200" height="32"/>
<rect id="_x3C_Slice_x3E__5_" x="-690" y="270" class="st77" width="200" height="32"/>
<rect id="_x3C_Slice_x3E__6_" x="-690" y="310" class="st77" width="200" height="32"/>
<rect id="_x3C_Slice_x3E__7_" x="-690" y="350" class="st77" width="200" height="32"/>
<rect id="_x3C_Slice_x3E__8_" x="-690" y="390" class="st77" width="200" height="32"/>
<rect id="_x3C_Slice_x3E__9_" x="-690" y="430" class="st77" width="200" height="32"/>
<rect id="_x3C_Slice_x3E__10_" x="-690" y="510" class="st77" width="200" height="32"/>
<rect id="_x3C_Slice_x3E__11_" x="-690" y="550" class="st77" width="200" height="32"/>
<rect id="_x3C_Slice_x3E__12_" x="-690" y="590" class="st77" width="200" height="32"/>
<rect id="_x3C_Slice_x3E__13_" x="-690" y="630" class="st77" width="200" height="32"/>
<rect id="_x3C_Slice_x3E__14_" x="-690" y="670" class="st77" width="200" height="32"/>
<rect id="_x3C_Slice_x3E__15_" x="-690" y="710" class="st77" width="200" height="32"/>
<rect id="_x3C_Slice_x3E__16_" x="-690" y="750" class="st77" width="200" height="32"/>
<rect id="_x3C_Slice_x3E__17_" x="-690" y="790" class="st77" width="200" height="32"/>
<rect id="_x3C_Slice_x3E__18_" x="-690" y="830" class="st77" width="200" height="32"/>
<rect id="_x3C_Slice_x3E__19_" x="-690" y="870" class="st77" width="200" height="32"/>
<rect id="_x3C_Slice_x3E__20_" x="-690" y="910" class="st77" width="200" height="32"/>
<rect id="_x3C_Slice_x3E__21_" x="-280" y="70" class="st77" width="200" height="32"/>
<rect id="_x3C_Slice_x3E__22_" x="-280" y="110" class="st77" width="200" height="32"/>
<rect id="_x3C_Slice_x3E__23_" x="-280" y="150" class="st77" width="200" height="32"/>
<rect id="_x3C_Slice_x3E__24_" x="-280" y="190" class="st77" width="200" height="32"/>
<rect id="_x3C_Slice_x3E__25_" x="-280" y="230" class="st77" width="200" height="32"/>
<rect id="_x3C_Slice_x3E__26_" x="-280" y="270" class="st77" width="200" height="32"/>
<rect id="_x3C_Slice_x3E__27_" x="-280" y="310" class="st77" width="200" height="32"/>
<rect id="_x3C_Slice_x3E__28_" x="-280" y="350" class="st77" width="200" height="32"/>
<rect id="_x3C_Slice_x3E__29_" x="-280" y="390" class="st77" width="200" height="32"/>
<rect id="_x3C_Slice_x3E__30_" x="-280" y="430" class="st77" width="200" height="32"/>
<rect id="_x3C_Slice_x3E__31_" x="-280" y="470" class="st77" width="200" height="32"/>
<rect id="_x3C_Slice_x3E__32_" x="-280" y="510" class="st77" width="200" height="32"/>
<rect id="_x3C_Slice_x3E__33_" x="-280" y="550" class="st77" width="200" height="32"/>
<rect id="_x3C_Slice_x3E__34_" x="-280" y="590" class="st77" width="200" height="32"/>
<rect id="_x3C_Slice_x3E__35_" x="-280" y="790" class="st77" width="200" height="32"/>
<rect id="_x3C_Slice_x3E__36_" x="-280" y="830" class="st77" width="200" height="32"/>
<rect id="_x3C_Slice_x3E__37_" class="st77" width="50" height="50"/>
<rect id="_x3C_Slice_x3E__38_" x="80" class="st77" width="50" height="50"/>
<rect id="_x3C_Slice_x3E__39_" x="160" class="st77" width="50" height="50"/>
<rect id="_x3C_Slice_x3E__40_" x="240" class="st77" width="50" height="50"/>
<rect id="_x3C_Slice_x3E__41_" y="80" class="st77" width="50" height="50"/>
<rect id="_x3C_Slice_x3E__42_" x="80" y="80" class="st77" width="50" height="50"/>
<rect id="_x3C_Slice_x3E__43_" x="160" y="80" class="st77" width="50" height="50"/>
<rect id="_x3C_Slice_x3E__44_" x="240" y="80" class="st77" width="50" height="50"/>
<rect id="_x3C_Slice_x3E__45_" y="160" class="st77" width="50" height="50"/>
<rect id="_x3C_Slice_x3E__46_" x="80" y="160" class="st77" width="50" height="50"/>
<rect id="_x3C_Slice_x3E__47_" x="160" y="160" class="st77" width="50" height="50"/>
<rect id="_x3C_Slice_x3E__48_" x="240" y="160" class="st77" width="50" height="50"/>
<rect id="_x3C_Slice_x3E__49_" y="240" class="st77" width="50" height="50"/>
<rect id="_x3C_Slice_x3E__50_" x="80" y="240" class="st77" width="50" height="50"/>
<rect id="_x3C_Slice_x3E__51_" x="160" y="240" class="st77" width="50" height="50"/>
<rect id="_x3C_Slice_x3E__52_" x="240" y="240" class="st77" width="50" height="50"/>
<rect id="_x3C_Slice_x3E__53_" y="320" class="st77" width="50" height="50"/>
<rect id="_x3C_Slice_x3E__54_" x="80" y="320" class="st77" width="50" height="50"/>
<rect id="_x3C_Slice_x3E__55_" x="160" y="320" class="st77" width="50" height="50"/>
<rect id="_x3C_Slice_x3E__56_" x="240" y="320" class="st77" width="50" height="50"/>
<rect id="_x3C_Slice_x3E__57_" y="400" class="st77" width="50" height="50"/>
<rect id="_x3C_Slice_x3E__58_" x="80" y="400" class="st77" width="50" height="50"/>
<rect id="_x3C_Slice_x3E__59_" x="160" y="400" class="st77" width="50" height="50"/>
<rect id="_x3C_Slice_x3E__60_" x="240" y="400" class="st77" width="50" height="50"/>
<rect id="_x3C_Slice_x3E__61_" y="480" class="st77" width="50" height="50"/>
<rect id="_x3C_Slice_x3E__62_" x="80" y="480" class="st77" width="50" height="50"/>
<rect id="_x3C_Slice_x3E__63_" x="160" y="480" class="st77" width="50" height="50"/>
<rect id="_x3C_Slice_x3E__64_" x="240" y="480" class="st77" width="50" height="50"/>
<rect id="_x3C_Slice_x3E__65_" y="560" class="st77" width="50" height="50"/>
<rect id="_x3C_Slice_x3E__66_" x="80" y="560" class="st77" width="50" height="50"/>
<rect id="_x3C_Slice_x3E__67_" x="160" y="560" class="st77" width="50" height="50"/>
<rect id="_x3C_Slice_x3E__68_" x="240" y="560" class="st77" width="50" height="50"/>
<rect id="_x3C_Slice_x3E__69_" y="640" class="st77" width="50" height="50"/>
<rect id="_x3C_Slice_x3E__70_" x="80" y="640" class="st77" width="50" height="50"/>
<rect id="_x3C_Slice_x3E__71_" x="160" y="640" class="st77" width="130" height="50"/>
</svg>
